<?xml version="1.0" encoding="UTF-8" standalone="no"?>
<svg
   xmlns:figma="http://www.figma.com/figma/ns"
   xmlns:dc="http://purl.org/dc/elements/1.1/"
   xmlns:cc="http://creativecommons.org/ns#"
   xmlns:rdf="http://www.w3.org/1999/02/22-rdf-syntax-ns#"
   xmlns:svg="http://www.w3.org/2000/svg"
   xmlns="http://www.w3.org/2000/svg"
   xmlns:xlink="http://www.w3.org/1999/xlink"
   xmlns:sodipodi="http://sodipodi.sourceforge.net/DTD/sodipodi-0.dtd"
   xmlns:inkscape="http://www.inkscape.org/namespaces/inkscape"
   width="3305.5393"
   height="2350"
   viewBox="0 0 3305.5393 2350"
   version="2.0"
   id="svg2"
   inkscape:version="0.91 r13725"
   sodipodi:docname="chapel-white.svg"
   inkscape:export-filename="C:\Users\Edward\IdeateDuke\Ideate\images\chapel-blue.png"
   inkscape:export-xdpi="100.01553"
   inkscape:export-ydpi="100.01553">
  <metadata
     id="metadata286">
    <rdf:RDF>
      <cc:Work
         rdf:about="">
        <dc:format>image/svg+xml</dc:format>
        <dc:type
           rdf:resource="http://purl.org/dc/dcmitype/StillImage" />
        <dc:title>Group</dc:title>
      </cc:Work>
    </rdf:RDF>
  </metadata>
  <sodipodi:namedview
     pagecolor="#1039f8"
     bordercolor="#666666"
     borderopacity="1"
     objecttolerance="10"
     gridtolerance="10"
     guidetolerance="10"
     inkscape:pageopacity="1"
     inkscape:pageshadow="2"
     inkscape:window-width="1920"
     inkscape:window-height="1001"
     id="namedview284"
     showgrid="false"
     fit-margin-top="0"
     fit-margin-left="0"
     fit-margin-right="0"
     fit-margin-bottom="0"
     inkscape:zoom="0.22627417"
     inkscape:cx="779.1805"
     inkscape:cy="1413.0504"
     inkscape:window-x="-9"
     inkscape:window-y="-9"
     inkscape:window-maximized="1"
     inkscape:current-layer="layer2" />
  <title
     id="title4">Group</title>
  <desc
     id="desc6">Created using Figma (9000)</desc>
  <g
     inkscape:groupmode="layer"
     id="layer2"
     inkscape:label="new"
     transform="translate(-409.1022,-162.67339)" />
  <g
     inkscape:groupmode="layer"
     id="layer1"
     inkscape:label="bg"
     transform="translate(-409.1022,-162.67339)">
    <g
       id="Canvas"
       transform="matrix(3.1666062,0,0,3.0151907,-2165.8166,-1791.6736)"
       figma:type="canvas">
      <g
         id="Group"
         style="mix-blend-mode:normal"
         figma:type="group"
         transform="translate(273.84567,0)">
        <g
           id="Rectangle 6"
           style="mix-blend-mode:normal;fill:#344ee0;fill-opacity:1"
           figma:type="rounded-rectangle">
          <use
             xlink:href="#path0_stroke"
             transform="translate(668.032,1245.01)"
             style="mix-blend-mode:normal;fill:#344ee0;fill-opacity:1"
             id="use11"
             x="0"
             y="0"
             width="100%"
             height="100%" />
        </g>
        <g
           id="Union"
           style="mix-blend-mode:normal;fill:#344ee0;fill-opacity:1"
           figma:type="vector-operation">
          <use
             xlink:href="#path1_stroke"
             transform="translate(884.032,715.014)"
             style="mix-blend-mode:normal;fill:#344ee0;fill-opacity:1"
             id="use14"
             x="0"
             y="0"
             width="100%"
             height="100%" />
        </g>
        <g
           id="Rectangle 5"
           style="mix-blend-mode:normal;fill:#344ee0;fill-opacity:1"
           figma:type="rounded-rectangle">
          <use
             xlink:href="#path2_stroke"
             transform="translate(1097.03,738.006)"
             style="mix-blend-mode:normal;fill:#344ee0;fill-opacity:1"
             id="use17"
             x="0"
             y="0"
             width="100%"
             height="100%" />
        </g>
        <g
           id="g19"
           style="mix-blend-mode:normal;fill:#344ee0;fill-opacity:1"
           figma:type="rounded-rectangle">
          <use
             xlink:href="#path2_stroke"
             transform="translate(1002.03,738.006)"
             style="mix-blend-mode:normal;fill:#344ee0;fill-opacity:1"
             id="use21"
             x="0"
             y="0"
             width="100%"
             height="100%" />
        </g>
        <g
           id="g23"
           style="mix-blend-mode:normal;fill:#344ee0;fill-opacity:1"
           figma:type="rounded-rectangle">
          <use
             xlink:href="#path3_stroke"
             transform="translate(1090.03,754.006)"
             style="mix-blend-mode:normal;fill:#344ee0;fill-opacity:1"
             id="use25"
             x="0"
             y="0"
             width="100%"
             height="100%" />
        </g>
        <g
           id="g27"
           style="mix-blend-mode:normal;fill:#344ee0;fill-opacity:1"
           figma:type="rounded-rectangle">
          <use
             xlink:href="#path3_stroke"
             transform="translate(993.532,754.548)"
             style="mix-blend-mode:normal;fill:#344ee0;fill-opacity:1"
             id="use29"
             x="0"
             y="0"
             width="100%"
             height="100%" />
        </g>
        <g
           id="Rectangle 2"
           style="mix-blend-mode:normal;fill:#344ee0;fill-opacity:1"
           figma:type="rounded-rectangle">
          <use
             xlink:href="#path4_stroke"
             transform="translate(916.032,1241.01)"
             style="mix-blend-mode:normal;fill:#344ee0;fill-opacity:1"
             id="use32"
             x="0"
             y="0"
             width="100%"
             height="100%" />
        </g>
        <g
           id="Vector 2"
           style="mix-blend-mode:normal;fill:#344ee0;fill-opacity:1"
           figma:type="vector">
          <use
             xlink:href="#path5_stroke"
             transform="translate(1004.03,1274.01)"
             style="mix-blend-mode:normal;fill:#344ee0;fill-opacity:1"
             id="use35"
             x="0"
             y="0"
             width="100%"
             height="100%" />
        </g>
        <g
           id="Rectangle"
           style="mix-blend-mode:normal;fill:#344ee0;fill-opacity:1"
           figma:type="vector">
          <use
             xlink:href="#path6_stroke"
             transform="translate(951.032,983.006)"
             style="mix-blend-mode:normal;fill:#344ee0;fill-opacity:1"
             id="use38"
             x="0"
             y="0"
             width="100%"
             height="100%" />
        </g>
        <g
           id="g40"
           style="mix-blend-mode:normal;fill:#344ee0;fill-opacity:1"
           figma:type="vector">
          <use
             xlink:href="#path7_stroke"
             transform="translate(1127.03,983.006)"
             style="mix-blend-mode:normal;fill:#344ee0;fill-opacity:1"
             id="use42"
             x="0"
             y="0"
             width="100%"
             height="100%" />
        </g>
        <g
           id="g44"
           style="mix-blend-mode:normal;fill:#344ee0;fill-opacity:1"
           figma:type="rounded-rectangle">
          <use
             xlink:href="#path8_stroke"
             transform="translate(1149.03,1219.01)"
             style="mix-blend-mode:normal;fill:#344ee0;fill-opacity:1"
             id="use46"
             x="0"
             y="0"
             width="100%"
             height="100%" />
        </g>
        <g
           id="g48"
           style="mix-blend-mode:normal;fill:#344ee0;fill-opacity:1"
           figma:type="rounded-rectangle">
          <use
             xlink:href="#path8_stroke"
             transform="translate(916.032,1220.01)"
             style="mix-blend-mode:normal;fill:#344ee0;fill-opacity:1"
             id="use50"
             x="0"
             y="0"
             width="100%"
             height="100%" />
        </g>
        <g
           id="g52"
           style="mix-blend-mode:normal;fill:#344ee0;fill-opacity:1"
           figma:type="vector-operation">
          <use
             xlink:href="#path9_stroke"
             transform="translate(1185.03,1188.01)"
             style="mix-blend-mode:normal;fill:#344ee0;fill-opacity:1"
             id="use54"
             x="0"
             y="0"
             width="100%"
             height="100%" />
        </g>
        <g
           id="g56"
           style="mix-blend-mode:normal;fill:#344ee0;fill-opacity:1"
           figma:type="vector-operation">
          <use
             xlink:href="#path9_stroke"
             transform="translate(1094.03,686.054)"
             style="mix-blend-mode:normal;fill:#344ee0;fill-opacity:1"
             id="use58"
             x="0"
             y="0"
             width="100%"
             height="100%" />
        </g>
        <g
           id="g60"
           style="mix-blend-mode:normal;fill:#344ee0;fill-opacity:1"
           figma:type="vector-operation">
          <use
             xlink:href="#path10_stroke"
             transform="translate(1046.03,729.965)"
             style="mix-blend-mode:normal;fill:#344ee0;fill-opacity:1"
             id="use62"
             x="0"
             y="0"
             width="100%"
             height="100%" />
        </g>
        <g
           id="g64"
           style="mix-blend-mode:normal;fill:#344ee0;fill-opacity:1"
           figma:type="vector-operation">
          <use
             xlink:href="#path9_stroke"
             transform="translate(998.033,686.054)"
             style="mix-blend-mode:normal;fill:#344ee0;fill-opacity:1"
             id="use66"
             x="0"
             y="0"
             width="100%"
             height="100%" />
        </g>
        <g
           id="g68"
           style="mix-blend-mode:normal;fill:#344ee0;fill-opacity:1"
           figma:type="vector-operation">
          <use
             xlink:href="#path9_stroke"
             transform="translate(909.033,1188.01)"
             style="mix-blend-mode:normal;fill:#344ee0;fill-opacity:1"
             id="use70"
             x="0"
             y="0"
             width="100%"
             height="100%" />
        </g>
        <g
           id="g72"
           style="mix-blend-mode:normal;fill:#344ee0;fill-opacity:1"
           figma:type="vector-operation">
          <use
             xlink:href="#path9_stroke"
             transform="translate(837.033,1199.28)"
             style="mix-blend-mode:normal;fill:#344ee0;fill-opacity:1"
             id="use74"
             x="0"
             y="0"
             width="100%"
             height="100%" />
        </g>
        <g
           id="g76"
           style="mix-blend-mode:normal;fill:#344ee0;fill-opacity:1"
           figma:type="vector-operation">
          <use
             xlink:href="#path9_stroke"
             transform="translate(749.032,1199.01)"
             style="mix-blend-mode:normal;fill:#344ee0;fill-opacity:1"
             id="use78"
             x="0"
             y="0"
             width="100%"
             height="100%" />
        </g>
        <g
           id="g80"
           style="mix-blend-mode:normal;fill:#344ee0;fill-opacity:1"
           figma:type="vector-operation">
          <use
             xlink:href="#path9_stroke"
             transform="translate(666.032,1199.73)"
             style="mix-blend-mode:normal;fill:#344ee0;fill-opacity:1"
             id="use82"
             x="0"
             y="0"
             width="100%"
             height="100%" />
        </g>
        <g
           id="g84"
           style="mix-blend-mode:normal;fill:#344ee0;fill-opacity:1"
           figma:type="vector-operation">
          <use
             xlink:href="#path9_stroke"
             transform="translate(1219.03,1292.51)"
             style="mix-blend-mode:normal;fill:#344ee0;fill-opacity:1"
             id="use86"
             x="0"
             y="0"
             width="100%"
             height="100%" />
        </g>
        <g
           id="g88"
           style="mix-blend-mode:normal;fill:#344ee0;fill-opacity:1"
           figma:type="vector-operation">
          <use
             xlink:href="#path11_fill"
             transform="translate(875.033,1291.01)"
             style="mix-blend-mode:normal;fill:#344ee0;fill-opacity:1"
             id="use90"
             x="0"
             y="0"
             width="100%"
             height="100%" />
          <use
             xlink:href="#path9_stroke"
             transform="translate(875.033,1291.01)"
             style="mix-blend-mode:normal;fill:#344ee0;fill-opacity:1"
             id="use92"
             x="0"
             y="0"
             width="100%"
             height="100%" />
        </g>
        <g
           id="Rectangle 4"
           style="mix-blend-mode:normal;fill:#344ee0;fill-opacity:1"
           figma:type="rounded-rectangle">
          <use
             xlink:href="#path12_stroke"
             transform="translate(987.032,801.006)"
             style="mix-blend-mode:normal;fill:#344ee0;fill-opacity:1"
             id="use95"
             x="0"
             y="0"
             width="100%"
             height="100%" />
        </g>
        <g
           id="Rectangle 3"
           style="mix-blend-mode:normal;fill:#344ee0;fill-opacity:1"
           figma:type="rounded-rectangle">
          <use
             xlink:href="#path13_stroke"
             transform="translate(1096.03,877.006)"
             style="mix-blend-mode:normal;fill:#344ee0;fill-opacity:1"
             id="use98"
             x="0"
             y="0"
             width="100%"
             height="100%" />
        </g>
        <g
           id="g100"
           style="mix-blend-mode:normal;fill:#344ee0;fill-opacity:1"
           figma:type="rounded-rectangle">
          <use
             xlink:href="#path14_stroke"
             transform="translate(979.032,877.006)"
             style="mix-blend-mode:normal;fill:#344ee0;fill-opacity:1"
             id="use102"
             x="0"
             y="0"
             width="100%"
             height="100%" />
        </g>
        <g
           id="g104"
           style="mix-blend-mode:normal;fill:#344ee0;fill-opacity:1"
           figma:type="rounded-rectangle">
          <use
             xlink:href="#path15_stroke"
             transform="translate(1047.03,881.895)"
             style="mix-blend-mode:normal;fill:#344ee0;fill-opacity:1"
             id="use106"
             x="0"
             y="0"
             width="100%"
             height="100%" />
        </g>
        <g
           id="g108"
           style="mix-blend-mode:normal;fill:#344ee0;fill-opacity:1"
           figma:type="vector">
          <use
             xlink:href="#path16_stroke"
             transform="translate(1008.03,832.006)"
             style="mix-blend-mode:normal;fill:#344ee0;fill-opacity:1"
             id="use110"
             x="0"
             y="0"
             width="100%"
             height="100%" />
        </g>
        <g
           id="g112"
           style="mix-blend-mode:normal;fill:#344ee0;fill-opacity:1"
           figma:type="vector">
          <use
             xlink:href="#path17_stroke"
             transform="translate(1057.03,833.006)"
             style="mix-blend-mode:normal;fill:#344ee0;fill-opacity:1"
             id="use114"
             x="0"
             y="0"
             width="100%"
             height="100%" />
        </g>
        <g
           id="g116"
           style="mix-blend-mode:normal;fill:#344ee0;fill-opacity:1"
           figma:type="vector">
          <use
             xlink:href="#path18_stroke"
             transform="translate(1018.38,851.006)"
             style="mix-blend-mode:normal;fill:#344ee0;fill-opacity:1"
             id="use118"
             x="0"
             y="0"
             width="100%"
             height="100%" />
        </g>
        <g
           id="g120"
           style="mix-blend-mode:normal;fill:#344ee0;fill-opacity:1"
           figma:type="vector">
          <use
             xlink:href="#path19_stroke"
             transform="translate(1066.88,851.006)"
             style="mix-blend-mode:normal;fill:#344ee0;fill-opacity:1"
             id="use122"
             x="0"
             y="0"
             width="100%"
             height="100%" />
        </g>
        <g
           id="g124"
           style="mix-blend-mode:normal;fill:#344ee0;fill-opacity:1"
           figma:type="rounded-rectangle">
          <use
             xlink:href="#path20_stroke"
             transform="translate(1048.03,854.006)"
             style="mix-blend-mode:normal;fill:#344ee0;fill-opacity:1"
             id="use126"
             x="0"
             y="0"
             width="100%"
             height="100%" />
        </g>
        <g
           id="g128"
           style="mix-blend-mode:normal;fill:#344ee0;fill-opacity:1"
           figma:type="rounded-rectangle">
          <use
             xlink:href="#path21_stroke"
             transform="translate(1029.03,1038.01)"
             style="mix-blend-mode:normal;fill:#344ee0;fill-opacity:1"
             id="use130"
             x="0"
             y="0"
             width="100%"
             height="100%" />
        </g>
        <g
           id="g132"
           style="mix-blend-mode:normal;fill:#344ee0;fill-opacity:1"
           figma:type="rounded-rectangle">
          <use
             xlink:href="#path21_stroke"
             transform="translate(1077.75,1038.01)"
             style="mix-blend-mode:normal;fill:#344ee0;fill-opacity:1"
             id="use134"
             x="0"
             y="0"
             width="100%"
             height="100%" />
        </g>
        <g
           id="Rectangle 7"
           style="mix-blend-mode:normal;fill:#344ee0;fill-opacity:1"
           figma:type="rounded-rectangle">
          <use
             xlink:href="#path22_stroke"
             transform="translate(668.032,1244.01)"
             style="mix-blend-mode:normal;fill:#344ee0;fill-opacity:1"
             id="use137"
             x="0"
             y="0"
             width="100%"
             height="100%" />
        </g>
        <g
           id="g139"
           style="mix-blend-mode:normal;fill:#344ee0;fill-opacity:1"
           figma:type="vector">
          <use
             xlink:href="#path23_stroke"
             transform="translate(1117.03,1199.01)"
             style="mix-blend-mode:normal;fill:#344ee0;fill-opacity:1"
             id="use141"
             x="0"
             y="0"
             width="100%"
             height="100%" />
        </g>
        <g
           id="g143"
           style="mix-blend-mode:normal;fill:#344ee0;fill-opacity:1"
           figma:type="vector">
          <use
             xlink:href="#path23_stroke"
             transform="translate(951.457,1199.01)"
             style="mix-blend-mode:normal;fill:#344ee0;fill-opacity:1"
             id="use145"
             x="0"
             y="0"
             width="100%"
             height="100%" />
        </g>
        <g
           id="g147"
           style="mix-blend-mode:normal;fill:#344ee0;fill-opacity:1"
           figma:type="vector">
          <use
             xlink:href="#path24_stroke"
             transform="translate(746.032,1226.01)"
             style="mix-blend-mode:normal;fill:#344ee0;fill-opacity:1"
             id="use149"
             x="0"
             y="0"
             width="100%"
             height="100%" />
        </g>
        <g
           id="g151"
           style="mix-blend-mode:normal;fill:#344ee0;fill-opacity:1"
           figma:type="vector">
          <use
             xlink:href="#path25_stroke"
             transform="translate(663.032,1226.01)"
             style="mix-blend-mode:normal;fill:#344ee0;fill-opacity:1"
             id="use153"
             x="0"
             y="0"
             width="100%"
             height="100%" />
        </g>
        <g
           id="g155"
           style="mix-blend-mode:normal;fill:#344ee0;fill-opacity:1"
           figma:type="vector">
          <use
             xlink:href="#path25_stroke"
             transform="translate(833.032,1226.01)"
             style="mix-blend-mode:normal;fill:#344ee0;fill-opacity:1"
             id="use157"
             x="0"
             y="0"
             width="100%"
             height="100%" />
        </g>
        <g
           id="g159"
           style="mix-blend-mode:normal;fill:#344ee0;fill-opacity:1"
           figma:type="group">
          <g
             id="g161"
             style="mix-blend-mode:normal;fill:#344ee0;fill-opacity:1"
             figma:type="vector">
            <use
               xlink:href="#path26_stroke"
               transform="translate(1021.03,1295.01)"
               style="mix-blend-mode:normal;fill:#344ee0;fill-opacity:1"
               id="use163"
               x="0"
               y="0"
               width="100%"
               height="100%" />
          </g>
          <g
             id="g165"
             style="mix-blend-mode:normal;fill:#344ee0;fill-opacity:1"
             figma:type="vector">
            <use
               xlink:href="#path27_stroke"
               transform="translate(772.032,1293.01)"
               style="mix-blend-mode:normal;fill:#344ee0;fill-opacity:1"
               id="use167"
               x="0"
               y="0"
               width="100%"
               height="100%" />
          </g>
          <g
             id="g169"
             style="mix-blend-mode:normal;fill:#344ee0;fill-opacity:1"
             figma:type="vector">
            <use
               xlink:href="#path28_stroke"
               transform="translate(682.032,1290.01)"
               style="mix-blend-mode:normal;fill:#344ee0;fill-opacity:1"
               id="use171"
               x="0"
               y="0"
               width="100%"
               height="100%" />
          </g>
          <g
             id="g173"
             style="mix-blend-mode:normal;fill:#344ee0;fill-opacity:1"
             figma:type="vector">
            <use
               xlink:href="#path29_stroke"
               transform="translate(1024.07,1145.78)"
               style="mix-blend-mode:normal;fill:#344ee0;fill-opacity:1"
               id="use175"
               x="0"
               y="0"
               width="100%"
               height="100%" />
          </g>
          <g
             id="g177"
             style="mix-blend-mode:normal;fill:#344ee0;fill-opacity:1"
             figma:type="vector">
            <use
               xlink:href="#path29_stroke"
               transform="translate(1071,1145.78)"
               style="mix-blend-mode:normal;fill:#344ee0;fill-opacity:1"
               id="use179"
               x="0"
               y="0"
               width="100%"
               height="100%" />
          </g>
          <g
             id="g181"
             style="mix-blend-mode:normal;fill:#344ee0;fill-opacity:1"
             figma:type="vector">
            <use
               xlink:href="#path27_stroke"
               transform="translate(1359.61,1291.01)"
               style="mix-blend-mode:normal;fill:#344ee0;fill-opacity:1"
               id="use183"
               x="0"
               y="0"
               width="100%"
               height="100%" />
          </g>
          <g
             id="g185"
             style="mix-blend-mode:normal;fill:#344ee0;fill-opacity:1"
             figma:type="vector">
            <use
               xlink:href="#path28_stroke"
               transform="translate(1269.61,1290.01)"
               style="mix-blend-mode:normal;fill:#344ee0;fill-opacity:1"
               id="use187"
               x="0"
               y="0"
               width="100%"
               height="100%" />
          </g>
        </g>
        <g
           id="g189"
           style="mix-blend-mode:normal;fill:#344ee0;fill-opacity:1"
           figma:type="vector-operation">
          <use
             xlink:href="#path9_stroke"
             transform="translate(1424.61,1199.28)"
             style="mix-blend-mode:normal;fill:#344ee0;fill-opacity:1"
             id="use191"
             x="0"
             y="0"
             width="100%"
             height="100%" />
        </g>
        <g
           id="g193"
           style="mix-blend-mode:normal;fill:#344ee0;fill-opacity:1"
           figma:type="vector-operation">
          <use
             xlink:href="#path9_stroke"
             transform="translate(1336.61,1199.01)"
             style="mix-blend-mode:normal;fill:#344ee0;fill-opacity:1"
             id="use195"
             x="0"
             y="0"
             width="100%"
             height="100%" />
        </g>
        <g
           id="g197"
           style="mix-blend-mode:normal;fill:#344ee0;fill-opacity:1"
           figma:type="vector-operation">
          <use
             xlink:href="#path9_stroke"
             transform="translate(1253.61,1199.73)"
             style="mix-blend-mode:normal;fill:#344ee0;fill-opacity:1"
             id="use199"
             x="0"
             y="0"
             width="100%"
             height="100%" />
        </g>
        <g
           id="g201"
           style="mix-blend-mode:normal;fill:#344ee0;fill-opacity:1"
           figma:type="rounded-rectangle">
          <use
             xlink:href="#path22_stroke"
             transform="translate(1195.03,1245.01)"
             style="mix-blend-mode:normal;fill:#344ee0;fill-opacity:1"
             id="use203"
             x="0"
             y="0"
             width="100%"
             height="100%" />
        </g>
        <g
           id="g205"
           style="mix-blend-mode:normal;fill:#344ee0;fill-opacity:1"
           figma:type="vector">
          <use
             xlink:href="#path24_stroke"
             transform="translate(1333.61,1226.01)"
             style="mix-blend-mode:normal;fill:#344ee0;fill-opacity:1"
             id="use207"
             x="0"
             y="0"
             width="100%"
             height="100%" />
        </g>
        <g
           id="g209"
           style="mix-blend-mode:normal;fill:#344ee0;fill-opacity:1"
           figma:type="vector">
          <use
             xlink:href="#path25_stroke"
             transform="translate(1250.61,1226.01)"
             style="mix-blend-mode:normal;fill:#344ee0;fill-opacity:1"
             id="use211"
             x="0"
             y="0"
             width="100%"
             height="100%" />
        </g>
        <g
           id="g213"
           style="mix-blend-mode:normal;fill:#344ee0;fill-opacity:1"
           figma:type="vector">
          <use
             xlink:href="#path25_stroke"
             transform="translate(1420.61,1226.01)"
             style="mix-blend-mode:normal;fill:#344ee0;fill-opacity:1"
             id="use215"
             x="0"
             y="0"
             width="100%"
             height="100%" />
        </g>
        <g
           id="g217"
           style="mix-blend-mode:normal;fill:#344ee0;fill-opacity:1"
           figma:type="group">
          <g
             id="Line 2"
             style="mix-blend-mode:normal;fill:#344ee0;fill-opacity:1"
             figma:type="line">
            <use
               xlink:href="#path30_stroke"
               transform="matrix(-0.00565345,0.999984,-0.999984,-0.00565345,1079.76,854.006)"
               style="mix-blend-mode:normal;fill:#344ee0;fill-opacity:1"
               id="use220"
               x="0"
               y="0"
               width="100%"
               height="100%" />
          </g>
          <g
             id="g222"
             style="mix-blend-mode:normal;fill:#344ee0;fill-opacity:1"
             figma:type="line">
            <use
               xlink:href="#path31_stroke"
               transform="matrix(-1,0,0,-1,1096.03,937.006)"
               style="mix-blend-mode:normal;fill:#344ee0;fill-opacity:1"
               id="use224"
               x="0"
               y="0"
               width="100%"
               height="100%" />
          </g>
          <g
             id="g226"
             style="mix-blend-mode:normal;fill:#344ee0;fill-opacity:1"
             figma:type="line">
            <use
               xlink:href="#path32_stroke"
               transform="matrix(-1,0,0,-1,1093.03,896.006)"
               style="mix-blend-mode:normal;fill:#344ee0;fill-opacity:1"
               id="use228"
               x="0"
               y="0"
               width="100%"
               height="100%" />
          </g>
        </g>
        <g
           id="g230"
           style="mix-blend-mode:normal;fill:#344ee0;fill-opacity:1"
           figma:type="group">
          <g
             id="g232"
             style="mix-blend-mode:normal;fill:#344ee0;fill-opacity:1"
             figma:type="line">
            <use
               xlink:href="#path30_stroke"
               transform="matrix(-0.00565345,0.999984,-0.999984,-0.00565345,1030.76,854.505)"
               style="mix-blend-mode:normal;fill:#344ee0;fill-opacity:1"
               id="use234"
               x="0"
               y="0"
               width="100%"
               height="100%" />
          </g>
          <g
             id="g236"
             style="mix-blend-mode:normal;fill:#344ee0;fill-opacity:1"
             figma:type="line">
            <use
               xlink:href="#path31_stroke"
               transform="matrix(-1,0,0,-1,1047.03,937.006)"
               style="mix-blend-mode:normal;fill:#344ee0;fill-opacity:1"
               id="use238"
               x="0"
               y="0"
               width="100%"
               height="100%" />
          </g>
          <g
             id="g240"
             style="mix-blend-mode:normal;fill:#344ee0;fill-opacity:1"
             figma:type="line">
            <use
               xlink:href="#path32_stroke"
               transform="matrix(-1,0,0,-1,1045.03,896.006)"
               style="mix-blend-mode:normal;fill:#344ee0;fill-opacity:1"
               id="use242"
               x="0"
               y="0"
               width="100%"
               height="100%" />
          </g>
        </g>
      </g>
    </g>
  </g>
  <defs
     id="defs244">
    <linearGradient
       id="paint21_linear"
       x1="0"
       y1="0"
       x2="1"
       y2="0"
       gradientUnits="userSpaceOnUse"
       gradientTransform="matrix(0,53,-19.9997,0,19.9997,0)">
      <stop
         offset="0"
         stop-color="#FFFFFF"
         id="stop247" />
      <stop
         offset="1"
         stop-color="#FFFFFF"
         stop-opacity="0"
         id="stop249" />
    </linearGradient>
    <path
       id="path0_stroke"
       d="m 0,8 0,177 c 0,4.418 3.58172,8 8,8 l 761,0 c 4.418,0 8,-3.582 8,-8 L 777,8 c 0,-4.41828 -3.582,-8 -8,-8 L 8,0 C 3.58172,0 0,3.58172 0,8 Z M 4,185 4,8 C 4,5.79086 5.79086,4 8,4 l 761,0 c 2.209,0 4,1.79086 4,4 l 0,177 c 0,2.209 -1.791,4 -4,4 L 8,189 c -2.20914,0 -4,-1.791 -4,-4 z"
       inkscape:connector-curvature="0" />
    <path
       id="path1_stroke"
       d="m 3.89758,624.965 0.44969,1.948 -0.44969,-1.948 z m 29.92572,-6.906 -0.4497,-1.949 0.4497,1.949 z m 34.212,-109.193 0.374,1.964 -0.374,-1.964 z m 5.955,-99.017 1.9984,0.081 -1.9984,-0.081 z m 24.0354,-19.27 1.1697,1.623 -1.1697,-1.623 z m 1.0577,-30.925 -1.9997,0.038 1.9997,-0.038 z m 8.4736,-197.834 1.608,1.189 c 0.254,-0.344 0.392,-0.761 0.392,-1.189 l -2,0 z m 6.326,-66.0736 1.552,1.2625 c 0.29,-0.3567 0.448,-0.8026 0.448,-1.2625 l -2,0 z m 0,-51.7188 0,-2 c -1.104,0 -2,0.8954 -2,2 l 2,0 z m 2.334,-11.6745 -1.621,-1.1715 c -0.247,0.3409 -0.379,0.7508 -0.379,1.1715 l 2,0 z m 3.163,-4.377 1.621,1.1715 c 0.246,-0.3409 0.379,-0.7509 0.379,-1.1715 l -2,0 z m 2.18,-5.1626 0,2 c 1.104,0 2,-0.8954 2,-2 l -2,0 z m 1.45,-9.7488 0,2 c 1.105,0 2,-0.8954 2,-2 l -2,0 z m 0,-9.4853 -1.806,-0.85946 c -0.128,0.2685 -0.194,0.56211 -0.194,0.85946 l 2,0 z m 1.516,-3.184454 1.806,0.859464 -1.806,-0.859464 z m 3.126,3.184454 2,0 c 0,-0.39152 -0.115,-0.77442 -0.331,-1.10125 l -1.669,1.10125 z m 0,9.4853 -2,0 c 0,1.1046 0.895,2 2,2 l 0,-2 z m 1.45,9.7488 -2,0 c 0,1.1046 0.895,2 2,2 l 0,-2 z m 2.031,5.1626 -2,0 c 0,0.4234 0.134,0.836 0.384,1.1782 l 1.616,-1.1782 z m 3.191,4.377 2,0 c 0,-0.4235 -0.135,-0.836 -0.384,-1.1782 l -1.616,1.1782 z m 2.03,11.6745 2,0 c 0,-1.1046 -0.895,-2 -2,-2 l 0,2 z m 0,42.8118 -2,0 c 0,1.1046 0.896,2 2,2 l 0,-2 z m 14.795,0 0,2 c 1.104,0 2,-0.8954 2,-2 l -2,0 z m 0,-8.9584 0,-2 c -1.105,0 -2,0.8955 -2,2 l 2,0 z m 10.733,0 2,0 c 0,-1.1045 -0.895,-2 -2,-2 l 0,2 z m 0,8.9584 -2,0 c 0,1.1046 0.896,2 2,2 l 0,-2 z m 8.25,-19.8257 0,2 c 1.104,0 2,-0.8954 2,-2 l -2,0 z m 0,-15.2309 -1.767,-0.9368 c -0.153,0.2885 -0.233,0.6102 -0.233,0.9368 l 2,0 z m 6.815,15.2309 2,0 c 0,-1.1045 -0.895,-2 -2,-2 l 0,2 z m 0,19.8257 -2,0 c 0,1.1046 0.896,2 2,2 l 0,-2 z M 44.7781,724.992 44.65,726.987 c 0.0426,0.003 0.0854,0.005 0.1281,0.005 l 0,-2 z m -42.7822,-2.746 0.12806,-1.995 -0.12806,1.995 z m 36.7312,-207.801 -0.374,-1.964 0.374,1.964 z m 31.3537,-7.952 -1.9983,-0.081 1.9983,0.081 z m 5.6127,-99.812 -1.1697,-1.622 1.1697,1.622 z m 23.9166,-19.271 1.9999,-0.038 -1.9999,0.038 z m 0.0486,-214.902 1.6083,1.189 -1.6083,-1.189 z m 8.5293,-69.764 1.551,1.263 -1.551,-1.263 z M 125.506,0.326741 123.837,1.42799 125.506,0.326741 Z m 47.47,47.986859 1.645,-1.1375 -1.645,1.1375 z m 169.126,576.6514 -0.449,1.948 0,0 0.449,-1.948 z m -29.925,-6.906 0.449,-1.949 -0.449,1.949 z m -36.717,-110.167 -0.401,1.959 0.401,-1.959 z m -3.5,-98.042 2,-0.031 -2,0.031 z m -23.986,-19.271 -1.169,1.623 1.169,-1.623 z m -1.057,-30.925 -2,-0.038 2,0.038 z m -8.474,-197.834 -2,0 c 0,0.428 0.138,0.845 0.392,1.189 l 1.608,-1.189 z m -6.326,-66.0736 -2,0 c 0,0.4599 0.158,0.9058 0.448,1.2625 l 1.552,-1.2625 z m 0,-51.7188 2,0 c 0,-1.1046 -0.896,-2 -2,-2 l 0,2 z m -2.334,-11.6745 2,0 c 0,-0.4207 -0.132,-0.8306 -0.379,-1.1715 l -1.621,1.1715 z m -3.163,-4.377 -2,0 c 0,0.4206 0.133,0.8306 0.379,1.1715 l 1.621,-1.1715 z m -2.18,-5.1626 -2,0 c 0,1.1046 0.896,2 2,2 l 0,-2 z m -1.45,-9.7488 -2,0 c 0,1.1046 0.895,2 2,2 l 0,-2 z m 0,-9.4853 2,0 c 0,-0.29735 -0.066,-0.59096 -0.194,-0.85946 L 222.99,3.5794 Z m -1.516,-3.184454 -1.806,0.859464 1.806,-0.859464 z M 218.348,3.5794 216.679,2.47815 c -0.216,0.32683 -0.331,0.70973 -0.331,1.10125 l 2,0 z m 0,9.4853 0,2 c 1.105,0 2,-0.8954 2,-2 l -2,0 z m -1.45,9.7488 0,2 c 1.105,0 2,-0.8954 2,-2 l -2,0 z m -2.031,5.1626 1.616,1.1782 c 0.25,-0.3422 0.384,-0.7548 0.384,-1.1782 l -2,0 z m -3.191,4.377 -1.616,-1.1782 c -0.249,0.3422 -0.384,0.7547 -0.384,1.1782 l 2,0 z m -2.03,11.6745 0,-2 c -1.105,0 -2,0.8954 -2,2 l 2,0 z m 0,42.8118 0,2 c 1.104,0 2,-0.8954 2,-2 l -2,0 z m -14.795,0 -2,0 c 0,1.1046 0.896,2 2,2 l 0,-2 z m 0,-8.9584 2,0 c 0,-1.1045 -0.895,-2 -2,-2 l 0,2 z m -10.733,0 0,-2 c -1.105,0 -2,0.8955 -2,2 l 2,0 z m 0,8.9584 0,2 c 1.104,0 2,-0.8954 2,-2 l -2,0 z m -8.25,-19.8257 -2,0 c 0,1.1046 0.896,2 2,2 l 0,-2 z m 0,-15.2309 2,0 c 0,-0.3266 -0.08,-0.6483 -0.233,-0.9368 l -1.767,0.9368 z m -1.806,-3.4082 -1.767,0.9368 1.767,-0.9368 z m -5.009,18.6391 0,-2 c -1.105,0 -2,0.8955 -2,2 l 2,0 z m 0,19.8257 0,2 c 1.104,0 2,-0.8954 2,-2 l -2,0 z m 132.169,638.1526 0,2 c 0.043,0 0.085,-0.002 0.128,-0.005 l -0.128,-1.995 z m 42.782,-2.746 -0.128,-1.995 0.128,1.995 z m -36.721,-207.853 0.401,-1.96 -0.401,1.96 z m -33.815,-8.901 -1.999,0.031 1.999,-0.031 z m -3.161,-98.811 1.169,-1.622 -1.169,1.622 z m -23.917,-19.271 2,0.038 -2,-0.038 z m -0.049,-214.902 -1.608,1.189 1.608,-1.189 z m -8.529,-69.764 1.551,-1.262 -1.551,1.262 z M 220.494,0.326741 222.163,1.42799 220.494,0.326741 Z m -47.47,47.986859 -1.645,-1.1375 1.645,1.1375 z m -0.024,0.0353 -1.645,1.1375 c 0.373,0.5401 0.988,0.8625 1.645,0.8625 0.657,0 1.272,-0.3224 1.645,-0.8625 L 173,48.3489 Z M 4.34727,626.913 34.273,620.008 l -0.8994,-3.898 -29.9257,6.906 0.89937,3.897 z m 32.45043,-10.079 0,-31.196 -4,0 0,31.196 4,0 z m 0,-31.196 0,-66.444 -4,0 0,66.444 4,0 z m 2.3035,-69.228 29.3081,-5.58 -0.7481,-3.929 -29.3081,5.58 0.7481,3.929 z m 32.978,-9.836 3.9095,-96.644 -3.9967,-0.162 -3.9095,96.644 3.9967,0.162 z m 4.7839,-98.271 22.3323,-16.101 -2.3394,-3.245 -22.3322,16.102 2.3393,3.244 z m 24.7469,-20.931 -0.527,-27.756 -3.9993,0.076 0.5267,27.756 3.9996,-0.076 z m -0.546,-29.718 0,-77.199 -3.9996,0 0,77.199 3.9996,0 z m 0,-77.199 0,-106.142 -3.9996,0 0,106.142 3.9996,0 z m 0.203,-106.758 7.898,-10.688 -3.217,-2.377 -7.8978,10.688 3.2168,2.377 z m 8.29,-11.877 0,-57.3 -4,0 0,57.3 4,0 z m 0.182,-57.813 5.696,-6.9981 -3.103,-2.525 -5.695,6.9981 3.102,2.525 z m 6.144,-8.2606 0,-51.7188 -4,0 0,51.7188 4,0 z m -2,-49.7188 1.334,0 0,-4 -1.334,0 0,4 z m 4.334,-3 0,-10.6745 -4,0 0,10.6745 4,0 z m -0.379,-9.503 3.163,-4.377 -3.242,-2.343 -3.163,4.377 3.242,2.343 z m 3.542,-5.5485 0,-4.1626 -4,0 0,4.1626 4,0 z m -1,-3.1626 1.18,0 0,-4 -1.18,0 0,4 z m 3.18,-2 0,-8.7488 -4,0 0,8.7488 4,0 z m -1,-7.7488 0.45,0 0,-4 -0.45,0 0,4 z m 2.45,-2 0,-9.4853 -4,0 0,9.4853 4,0 z m -0.194,-8.62584 1.516,-3.18445 -3.612,-1.718925 -1.516,3.184455 3.612,1.71892 z m -0.979,-3.01087 2.145,3.25266 3.339,-2.2025 -2.145,-3.252659 -3.339,2.202499 z m 1.815,2.15141 0,9.4853 4,0 0,-9.4853 -4,0 z m 2,11.4853 0.45,0 0,-4 -0.45,0 0,4 z m -0.55,-1 0,8.7488 4,0 0,-8.7488 -4,0 z m 2,10.7488 1.031,0 0,-4 -1.031,0 0,4 z m 0.031,-1 0,4.1626 4,0 0,-4.1626 -4,0 z m 0.384,5.3408 3.191,4.377 3.232,-2.3564 -3.191,-4.377 -3.232,2.3564 z m 2.807,3.1988 0,10.6745 4,0 0,-10.6745 -4,0 z m 3,13.6745 1.03,0 0,-4 -1.03,0 0,4 z m -0.97,-2 0,42.8118 4,0 0,-42.8118 -4,0 z m 2,44.8118 14.795,0 0,-4 -14.795,0 0,4 z m 16.795,-2 0,-8.9584 -4,0 0,8.9584 4,0 z m 6.733,-8.9584 0,8.9584 4,0 0,-8.9584 -4,0 z m 9.361,-8.8673 0.889,0 0,-4 -0.889,0 0,4 z m 2.889,-2 0,-15.2309 -4,0 0,15.2309 4,0 z m -0.233,-14.2941 1.806,-3.4082 -3.534,-1.8736 -1.806,3.4082 3.534,1.8736 z m 3.048,14.2941 0,7.4421 4,0 0,-7.4421 -4,0 z m 0,7.4421 0,12.3836 4,0 0,-12.3836 -4,0 z m 10.52,5.4252 8.798,0 0,-4 -8.798,0 0,4 z M 44.9061,722.996 2.12396,720.251 1.86783,724.242 44.65,726.987 44.9061,722.996 Z M 2,720.118 l 0,-90.254 -4,0 0,90.254 4,0 z M 3.4479,623.016 C 0.387843,623.722 -2,626.723 -2,629.864 l 4,0 c 0,-1.278 1.10217,-2.663 2.34727,-2.951 L 3.4479,623.016 Z m 30.8251,-3.008 c 1.4456,-0.334 2.5247,-1.69 2.5247,-3.174 l -4,0 c 0.0355,-0.099 0.16,-0.45 0.1495,-0.472 0.0234,0.006 0.338,-0.195 0.4264,-0.252 l 0.8994,3.898 z m 2.5247,-100.814 c 0,-1.249 1.0767,-2.55 2.3035,-2.784 l -0.7481,-3.929 c -3.1136,0.593 -5.5554,3.543 -5.5554,6.713 l 4,0 z m 31.6116,-8.364 c 1.9987,-0.38 3.5877,-2.223 3.6699,-4.256 l -3.9967,-0.162 c -0.0071,0.175 -0.2498,0.456 -0.4213,0.489 l 0.7481,3.929 z m 7.5794,-100.9 c 0.0198,-0.49 0.4768,-1.34 0.8744,-1.627 l -2.3393,-3.244 c -1.3943,1.005 -2.4624,2.992 -2.5318,4.709 l 3.9967,0.162 z m 23.2067,-17.728 c 1.4286,-1.03 2.4476,-3.069 2.4146,-4.83 l -3.9996,0.076 c 0.0085,0.448 -0.3907,1.247 -0.7544,1.509 l 2.3394,3.245 z m 1.8876,-32.586 c -0.01,-0.543 -0.019,-1.419 -0.019,-1.962 l -3.9996,0 c 0,0.562 0.0087,1.476 0.0193,2.038 l 3.9993,-0.076 z m -0.019,-185.303 c 0,-0.125 0.129,-0.516 0.203,-0.616 l -3.2168,-2.377 c -0.5825,0.788 -0.9858,2.012 -0.9858,2.993 l 3.9996,0 z m 8.493,-69.793 c 0,-0.093 0.124,-0.442 0.182,-0.513 l -3.102,-2.525 c -0.639,0.785 -1.08,2.026 -1.08,3.038 l 4,0 z m 5.66,-58.4924 c 1.657,0 3,-1.3431 3,-3 l -4,0 c 0.011,-0.0711 0.064,-0.3307 0.079,-0.3899 0.035,-0.0575 0.177,-0.2683 0.214,-0.3172 0.049,-0.0363 0.259,-0.1787 0.317,-0.2135 0.059,-0.0151 0.319,-0.0684 0.39,-0.0794 l 0,4 z m 6.163,-22.2141 c -0.011,0.0712 -0.064,0.3308 -0.079,0.3899 -0.035,0.0575 -0.177,0.2683 -0.214,0.3172 -0.049,0.0363 -0.259,0.1787 -0.317,0.2135 -0.059,0.0152 -0.319,0.0684 -0.39,0.0794 l 0,-4 c -1.657,0 -3,1.3432 -3,3 l 4,0 z m 2.18,-9.7488 c -0.011,0.0712 -0.065,0.3308 -0.08,0.3899 -0.035,0.0575 -0.177,0.2684 -0.213,0.3172 -0.049,0.0363 -0.26,0.1787 -0.317,0.2135 -0.06,0.0152 -0.319,0.0684 -0.39,0.0794 l 0,-4 c -1.657,0 -3,1.3432 -3,3 l 4,0 z m 2.772,-12.81029 c -0.037,0.05286 -0.228,0.30127 -0.319,0.39373 -0.162,0.10634 -0.65,0.30518 -0.883,0.34799 -0.237,-0.0101 -0.748,-0.13946 -0.924,-0.22225 -0.102,-0.07906 -0.326,-0.29857 -0.369,-0.34589 l 3.339,-2.202499 c -0.376,-0.569511 -1.159,-1.300761 -2.324,-1.219721 -1.165,0.08105 -1.839,0.91368 -2.132,1.529715 l 3.612,1.718925 z m 1.77,13.81029 c -0.071,-0.011 -0.331,-0.0642 -0.39,-0.0794 -0.057,-0.0348 -0.268,-0.1772 -0.317,-0.2135 -0.036,-0.0488 -0.179,-0.2597 -0.214,-0.3172 -0.015,-0.0591 -0.068,-0.3187 -0.079,-0.3899 l 4,0 c 0,-1.6568 -1.343,-3 -3,-3 l 0,4 z m 2.031,9.7488 c -0.071,-0.011 -0.331,-0.0642 -0.39,-0.0794 -0.058,-0.0348 -0.269,-0.1772 -0.317,-0.2135 -0.037,-0.0489 -0.179,-0.2597 -0.214,-0.3172 -0.015,-0.0591 -0.068,-0.3187 -0.079,-0.3899 l 4,0 c 0,-1.6568 -1.343,-3 -3,-3 l 0,4 z m 2.191,18.2141 c 0,1.6569 1.343,3 3,3 l 0,-4 c 0.071,0.011 0.33,0.0643 0.39,0.0794 0.057,0.0348 0.268,0.1772 0.317,0.2135 0.036,0.0489 0.178,0.2597 0.213,0.3172 0.015,0.0592 0.069,0.3188 0.08,0.3899 l -4,0 z m 41.381,6.2838 c -0.041,0.055 -0.244,0.2949 -0.334,0.3797 -0.153,0.0906 -0.61,0.2609 -0.817,0.2962 -0.21,-0.0108 -0.684,-0.1264 -0.847,-0.1984 -0.099,-0.0735 -0.329,-0.288 -0.376,-0.3378 l 3.29,-2.275 c -0.414,-0.5976 -1.201,-1.2466 -2.302,-1.1819 -1.101,0.0648 -1.807,0.8016 -2.148,1.4436 l 3.534,1.8736 z M 2.12396,720.251 C 2.07434,720.247 2,720.168 2,720.118 l -4,0 c 0,2.16 1.712842,3.986 3.86783,4.124 l 0.25613,-3.991 z m 340.42804,-97.235 -29.926,-6.906 -0.899,3.898 29.926,6.905 0.899,-3.897 z m -29.35,-6.182 0,-31.196 -4,0 0,31.196 4,0 z m 0,-31.196 0,-66.444 -4,0 0,66.444 4,0 z m -5.518,-73.205 -31.824,-6.501 -0.801,3.919 31.824,6.502 0.801,-3.92 z m -32.216,-6.973 -1.508,-95.641 -3.999,0.063 1.508,95.641 3.999,-0.063 z m -3.992,-100.401 -22.332,-16.102 -2.339,3.245 22.332,16.101 2.339,-3.244 z m -23.086,-17.611 0.526,-27.756 -3.999,-0.076 -0.527,27.756 4,0.076 z m 0.546,-29.794 0,-77.199 -4,0 0,77.199 4,0 z m 0,-77.199 0,-106.142 -4,0 0,106.142 4,0 z m -0.986,-109.135 -7.898,-10.688 -3.217,2.377 7.898,10.688 3.217,-2.377 z m -7.507,-9.5 0,-57.3 -4,0 0,57.3 4,0 z m -1.08,-60.338 -5.695,-6.9981 -3.103,2.525 5.696,6.9981 3.102,-2.525 z m -5.246,-5.7356 0,-51.7188 -4,0 0,51.7188 4,0 z m -2,-53.7188 -1.334,0 0,4 1.334,0 0,-4 z m -0.334,1 0,-10.6745 -4,0 0,10.6745 4,0 z m -0.379,-11.846 -3.163,-4.377 -3.242,2.343 3.163,4.377 3.242,-2.343 z m -2.784,-3.2055 0,-4.1626 -4,0 0,4.1626 4,0 z m -3,-7.1626 -1.18,0 0,4 1.18,0 0,-4 z m 0.82,2 0,-8.7488 -4,0 0,8.7488 4,0 z m -3,-11.7488 -0.45,0 0,4 0.45,0 0,-4 z m 1.55,2 0,-9.4853 -4,0 0,9.4853 4,0 z m -0.194,-10.34476 -1.516,-3.184455 -3.612,1.718925 1.516,3.18445 3.612,-1.71892 z m -5.972,-3.494449 -2.145,3.252659 3.339,2.2025 2.145,-3.25266 -3.339,-2.202499 z m -2.476,4.353909 0,9.4853 4,0 0,-9.4853 -4,0 z m 2,7.4853 -0.45,0 0,4 0.45,0 0,-4 z m -3.45,3 0,8.7488 4,0 0,-8.7488 -4,0 z m 2,6.7488 -1.031,0 0,4 1.031,0 0,-4 z m -4.031,3 0,4.1626 4,0 0,-4.1626 -4,0 z m 0.384,2.9844 -3.191,4.377 3.232,2.3564 3.191,-4.377 -3.232,-2.3564 z m -3.575,5.5552 0,10.6745 4,0 0,-10.6745 -4,0 z m 1,9.6745 -1.03,0 0,4 1.03,0 0,-4 z m -3.03,2 0,42.8118 4,0 0,-42.8118 -4,0 z m 2,40.8118 -14.795,0 0,4 14.795,0 0,-4 z m -12.795,2 0,-8.9584 -4,0 0,8.9584 4,0 z m -14.733,-8.9584 0,8.9584 4,0 0,-8.9584 -4,0 z m -5.361,-12.8673 -0.889,0 0,4 0.889,0 0,-4 z m 1.111,2 0,-15.2309 -4,0 0,15.2309 4,0 z m -0.233,-16.1677 -1.806,-3.4082 -3.534,1.8736 1.806,3.4082 3.534,-1.8736 z m -10.582,16.1677 0,7.4421 4,0 0,-7.4421 -4,0 z m 0,7.4421 0,12.3836 4,0 0,-12.3836 -4,0 z m -6.52,1.4252 -8.798,0 0,4 8.798,0 0,-4 z m 140.817,651.106 42.782,-2.745 -0.256,-3.991 -42.782,2.745 0.256,3.991 z m 46.65,-6.869 0,-90.254 -4,0 0,90.254 4,0 z m -6.347,-93.205 c 1.245,0.288 2.347,1.673 2.347,2.951 l 4,0 c 0,-3.141 -2.388,-6.142 -5.448,-6.848 l -0.899,3.897 z M 312.626,616.11 c 0.089,0.057 0.403,0.258 0.427,0.252 -0.011,0.022 0.114,0.373 0.149,0.472 l -4,0 c 0,1.484 1.079,2.84 2.525,3.174 l 0.899,-3.898 z m 0.576,-96.916 c 0,-3.16 -2.423,-6.128 -5.518,-6.761 l -0.801,3.92 c 1.233,0.251 2.319,1.582 2.319,2.841 l 4,0 z M 275.86,505.932 c -0.163,-0.033 -0.389,-0.306 -0.392,-0.472 l -3.999,0.063 c 0.032,2.043 1.589,3.92 3.59,4.328 l 0.801,-3.919 z m -1.9,-96.113 c -0.027,-1.736 -1.075,-3.745 -2.484,-4.76 l -2.339,3.244 c 0.383,0.277 0.816,1.106 0.824,1.579 l 3.999,-0.063 z m -24.816,-20.862 c -0.364,-0.262 -0.763,-1.061 -0.754,-1.509 l -4,-0.076 c -0.033,1.761 0.986,3.8 2.415,4.83 l 2.339,-3.245 z m -0.228,-29.265 c 0.011,-0.562 0.02,-1.476 0.02,-2.038 l -4,0 c 0,0.543 -0.009,1.419 -0.019,1.962 l 3.999,0.076 z m 0.02,-185.379 c 0,-0.981 -0.404,-2.205 -0.986,-2.993 l -3.217,2.377 c 0.074,0.1 0.203,0.491 0.203,0.616 l 4,0 z m -8.493,-69.793 c 0,-1.012 -0.441,-2.253 -1.08,-3.038 l -3.102,2.525 c 0.058,0.071 0.182,0.42 0.182,0.513 l 4,0 z m -9.66,-62.4924 c 0.071,0.011 0.331,0.0643 0.39,0.0794 0.058,0.0348 0.268,0.1772 0.317,0.2135 0.037,0.0489 0.179,0.2597 0.214,0.3172 0.015,0.0592 0.068,0.3188 0.079,0.3899 l -4,0 c 0,1.6569 1.343,3 3,3 l 0,-4 z M 228.62,23.8135 c 0,-1.6568 -1.343,-3 -3,-3 l 0,4 c -0.071,-0.011 -0.331,-0.0642 -0.39,-0.0794 -0.058,-0.0348 -0.268,-0.1772 -0.317,-0.2135 -0.037,-0.0489 -0.179,-0.2597 -0.214,-0.3172 -0.015,-0.0591 -0.068,-0.3187 -0.079,-0.3899 l 4,0 z m -2.18,-9.7488 c 0,-1.6568 -1.343,-3 -3,-3 l 0,4 c -0.071,-0.011 -0.33,-0.0642 -0.39,-0.0794 -0.057,-0.0348 -0.268,-0.1772 -0.317,-0.2135 -0.036,-0.0488 -0.178,-0.2597 -0.213,-0.3172 -0.015,-0.0591 -0.069,-0.3187 -0.08,-0.3899 l 4,0 z m -3.16,-14.529215 c -0.293,-0.616035 -0.967,-1.448665 -2.132,-1.529715 -1.165,-0.08104 -1.948,0.65021 -2.324,1.219721 l 3.339,2.202499 c -0.043,0.04732 -0.267,0.26683 -0.369,0.34589 -0.176,0.08279 -0.687,0.21215 -0.924,0.22225 -0.233,-0.04281 -0.721,-0.24165 -0.883,-0.34799 -0.091,-0.09246 -0.282,-0.34087 -0.319,-0.39373 l 3.612,-1.718925 z M 217.898,11.0647 c -1.657,0 -3,1.3432 -3,3 l 4,0 c -0.011,0.0712 -0.064,0.3308 -0.079,0.3899 -0.035,0.0575 -0.178,0.2684 -0.214,0.3172 -0.049,0.0363 -0.26,0.1787 -0.317,0.2135 -0.059,0.0152 -0.319,0.0684 -0.39,0.0794 l 0,-4 z m -2.031,9.7488 c -1.657,0 -3,1.3432 -3,3 l 4,0 c -0.011,0.0712 -0.064,0.3308 -0.079,0.3899 -0.035,0.0575 -0.177,0.2683 -0.214,0.3172 -0.048,0.0363 -0.259,0.1787 -0.317,0.2135 -0.059,0.0152 -0.319,0.0684 -0.39,0.0794 l 0,-4 z m -6.191,22.2141 c 0.011,-0.0711 0.065,-0.3307 0.08,-0.3899 0.035,-0.0575 0.177,-0.2683 0.213,-0.3172 0.049,-0.0363 0.26,-0.1787 0.317,-0.2135 0.06,-0.0151 0.319,-0.0684 0.39,-0.0794 l 0,4 c 1.657,0 3,-1.3431 3,-3 l -4,0 z m -33.847,4.4102 c -0.341,-0.642 -1.047,-1.3788 -2.148,-1.4436 -1.101,-0.0647 -1.888,0.5843 -2.302,1.1819 l 3.29,2.275 c -0.047,0.0498 -0.277,0.2643 -0.376,0.3378 -0.163,0.072 -0.637,0.1876 -0.847,0.1984 -0.207,-0.0353 -0.664,-0.2056 -0.817,-0.2962 -0.09,-0.0848 -0.293,-0.3247 -0.334,-0.3797 l 3.534,-1.8736 z M 344.132,724.242 c 2.155,-0.138 3.868,-1.964 3.868,-4.124 l -4,0 c 0,0.05 -0.074,0.129 -0.124,0.133 l 0.256,3.991 z m -195.846,2.75 49.428,0 0,-4 -49.428,0 0,4 z m 49.428,0 103.508,0 0,-4 -103.508,0 0,4 z m -28.471,-661.9783 -0.19,0 0,4 0.19,0 0,-4 z m -0.19,19.8257 -7.171,0 0,4 7.171,0 0,-4 z m 15.065,0 -7.171,0 0,4 7.171,0 0,-4 z m 10.733,-8.9584 -0.586,0 0,4 0.586,0 0,-4 z m -9.384,0 -1.349,0 0,4 1.349,0 0,-4 z m -37.181,647.111 -103.5079,0 0,4 103.5079,0 0,-4 z m 23.093,-675.8159 -0.024,0.0353 3.29,2.275 0.024,-0.0353 -3.29,-2.275 z m -0.048,2.275 0.024,0.0353 3.29,-2.275 -0.024,-0.0353 -3.29,2.275 z m 5.426,19.5626 0.19,0 0,-4 -0.19,0 0,4 z m -25.608,10.8673 0.586,0 0,-4 -0.586,0 0,4 z m 9.384,0 1.349,0 0,-4 -1.349,0 0,4 z"
       inkscape:connector-curvature="0" />
    <path
       id="path2_stroke"
       d="m 0,6 0,7 c 0,3.3137 2.68629,6 6,6 l 3,0 c 3.3137,0 6,-2.6863 6,-6 L 15,6 C 15,2.68629 12.3137,0 9,0 L 6,0 C 2.68629,0 0,2.68629 0,6 Z M 4,13 4,6 C 4,4.89543 4.89543,4 6,4 l 3,0 c 1.1046,0 2,0.89543 2,2 l 0,7 c 0,1.1046 -0.8954,2 -2,2 L 6,15 C 4.89543,15 4,14.1046 4,13 Z"
       inkscape:connector-curvature="0" />
    <path
       id="path3_stroke"
       d="m 0,6 0,50 c 0,3.3137 2.68629,6 6,6 l 17,0 c 3.3137,0 6,-2.6863 6,-6 L 29,6 C 29,2.68629 26.3137,0 23,0 L 6,0 C 2.68629,0 0,2.68629 0,6 Z M 4,56 4,6 C 4,4.89543 4.89543,4 6,4 l 17,0 c 1.1046,0 2,0.89543 2,2 l 0,50 c 0,1.1046 -0.8954,2 -2,2 L 6,58 C 4.89543,58 4,57.1046 4,56 Z"
       inkscape:connector-curvature="0" />
    <path
       id="path4_stroke"
       d="M 4,4 C 3.99562,4.00438 4,3.99889 4,4 Z m 246,0 c 0,-2.20914 -1.791,-4 -4,-4 L 4,0 C 1.79086,0 0,1.79086 0,4 l 0,195 c 0,2.209 1.79086,4 4,4 l 242,0 c 2.209,0 4,-1.791 4,-4 L 250,4 Z M 4,4 246,4 246,199 4,199 4,4 C 3.99562,4.00438 4,3.99889 4,4 Z"
       inkscape:connector-curvature="0" />
    <path
       id="path5_stroke"
       d="m 1.25211,166 -1.995564,0.133 0.12452,1.867 1.871044,0 0,-2 z m 101.52489,0 0,2 1.86,0 0.134,-1.855 -1.994,-0.145 z m 0,-2 -101.52489,0 0,4 101.52489,0 0,-4 z M 52.9281,2 c 12.3141,0 21.7829,7.07194 29.0596,19.0534 7.3039,12.0262 12.221,28.7514 15.35,47.3387 l 3.9443,-0.664 C 98.1199,48.9426 93.0959,31.6377 85.4066,18.977 77.6902,6.27169 67.1137,-2 52.9281,-2 l 0,4 z m 44.4096,66.3921 c 5.5223,32.7599 5.3933,70.6399 3.4443,97.4629 l 3.989,0.29 c 1.957,-26.961 2.076,-65.319 -3.489,-98.4169 l -3.9443,0.664 z M 3.24768,165.867 C 1.87447,145.287 1.39867,121.148 3.03323,97.7129 l -3.990327,-0.278 C -2.60009,121.048 -2.12181,145.459 -0.743454,166.133 L 3.24768,165.867 Z M 3.03323,97.7129 C 4.78341,72.5532 8.90969,48.5054 16.9667,30.6635 24.9625,12.9184 36.5171,2 52.9281,2 l 0,-4 C 34.2466,-2 21.616,10.6084 13.3198,29.0202 5.08471,47.3352 0.812184,72.0743 -0.957097,97.4349 l 3.990327,0.278 z"
       inkscape:connector-curvature="0" />
    <path
       id="path6_stroke"
       d="M 32,239 4,239 4,24.0584 18,6.43149 32,24.0584 32,239 Z m -28,4 28,0 4,0 0,-4 L 36,22.6632 19.2439,1.56613 c -0.687,-0.86495 -1.8008,-0.86495 -2.4878,0 L 0,22.6632 0,239 l 0,4 4,0 z"
       inkscape:connector-curvature="0" />
    <path
       id="path7_stroke"
       d="M 28,240 4,240 4,24.0219 16,6.95457 28,24.0219 28,240 Z m -24,4 24,0 4,0 0,-4 L 32,22.7565 17.1503,1.63608 c -0.6353,-0.903582 -1.6653,-0.903582 -2.3006,0 L 0,22.7565 0,240 l 0,4 4,0 z"
       inkscape:connector-curvature="0" />
    <path
       id="path8_stroke"
       d="m 4,4 42,0 4,0 C 50,1.79086 48.2091,0 46,0 L 4,0 C 1.79086,0 0,1.79086 0,4 L 4,4 C 3.99889,4 4.00438,3.99562 4,4 Z M 46,4 46,230 4,230 4,4 C 3.99889,4 4.00438,3.99562 4,4 L 0,4 0,230 c 0,2.209 1.79086,4 4,4 l 42,0 c 2.2091,0 4,-1.791 4,-4 L 50,4 46,4 Z"
       inkscape:connector-curvature="0" />
    <path
       id="path9_stroke"
       d="m 14,18.5 -2,0 c 0,1.1046 0.8954,2 2,2 l 0,-2 z m -7,0 0,2 c 1.10457,0 2,-0.8954 2,-2 l -2,0 z M 7,8 7,10 C 8.10457,10 9,9.10457 9,8 L 7,8 Z m 0,7 2,0 C 9,13.8954 8.10457,13 7,13 l 0,2 z m 0,10.5 2,0 c 0,-1.1046 -0.89543,-2 -2,-2 l 0,2 z m 7,0 0,-2 c -1.1046,0 -2,0.8954 -2,2 l 2,0 z M 14,8 12,8 c 0,1.10457 0.8954,2 2,2 l 0,-2 z m 0,7 0,-2 c -1.1046,0 -2,0.8954 -2,2 l 2,0 z M 5,49.5 c 0,3.0376 2.46243,5.5 5.5,5.5 l 0,-4 C 9.67157,51 9,50.3284 9,49.5 l -4,0 z m 5.5,5.5 c 3.0376,0 5.5,-2.4624 5.5,-5.5 l -4,0 c 0,0.8284 -0.6716,1.5 -1.5,1.5 l 0,4 z M 16,3.5 C 16,0.462434 13.5376,-2 10.5,-2 l 0,4 C 11.3284,2 12,2.67157 12,3.5 l 4,0 z M 10.5,-2 C 7.46243,-2 5,0.462434 5,3.5 l 4,0 C 9,2.67157 9.67157,2 10.5,2 l 0,-4 z m -5,8 C 2.46243,6 0,8.46243 0,11.5 l 4,0 C 4,10.6716 4.67157,10 5.5,10 l 0,-4 z M 0,11.5 C 0,14.5376 2.46243,17 5.5,17 l 0,-4 C 4.67157,13 4,12.3284 4,11.5 l -4,0 z M 14.4997,17 c 3.0376,0 5.5,-2.4624 5.5,-5.5 l -4,0 c 0,0.8284 -0.6716,1.5 -1.5,1.5 l 0,4 z m 5.5,-5.5 c 0,-3.03757 -2.4624,-5.5 -5.5,-5.5 l 0,4 c 0.8284,0 1.5,0.6716 1.5,1.5 l 4,0 z M 3.5,16.5 C 0.462434,16.5 -2,18.9624 -2,22 l 4,0 c 0,-0.8284 0.67157,-1.5 1.5,-1.5 l 0,-4 z M -2,22 c 0,3.0376 2.462434,5.5 5.5,5.5 l 0,-4 C 2.67157,23.5 2,22.8284 2,22 l -4,0 z m 18.4997,5.5 c 3.0376,0 5.5,-2.4624 5.5,-5.5 l -4,0 c 0,0.8284 -0.6716,1.5 -1.5,1.5 l 0,4 z m 5.5,-5.5 c 0,-3.0376 -2.4624,-5.5 -5.5,-5.5 l 0,4 c 0.8284,0 1.5,0.6716 1.5,1.5 l 4,0 z m -5.5,-5.5 -2.4997,0 0,4 2.4997,0 0,-4 z M 7,16.5 l -3.5,0 0,4 3.5,0 0,-4 z M 5,3.5 5,8 9,8 9,3.5 5,3.5 Z m 0,11.5 0,3.5 4,0 0,-3.5 -4,0 z m 0,10.5 0,24 4,0 0,-24 -4,0 z m -1.5,2 3.5,0 0,-4 -3.5,0 0,4 z m 10.5,0 2.4997,0 0,-4 -2.4997,0 0,4 z M 14.4997,6 14,6 l 0,4 0.4997,0 0,-4 z M 7,6 5.5,6 5.5,10 7,10 7,6 Z m -1.5,11 1.5,0 0,-4 -1.5,0 0,4 z m 8.5,0 0.4997,0 0,-4 -0.4997,0 0,4 z m 2,32.5 0,-24 -4,0 0,24 4,0 z m 0,-31 0,-3.5 -4,0 0,3.5 4,0 z M 16,8 l 0,-4.5 -4,0 0,4.5 4,0 z"
       inkscape:connector-curvature="0" />
    <path
       id="path10_stroke"
       d="m 7.95949,71.0411 1.99981,-0.027 -1.99981,0.027 z M 13.0405,2.95949 11.0407,2.9865 13.0405,2.95949 Z m 0.1975,14.62331 -1.9998,0.027 c 0.0148,1.094 0.9058,1.973 1.9998,1.973 l 0,-2 z m -6.00051,0 0,2 c 0.53511,0 1.04791,-0.2144 1.42373,-0.5954 0.37582,-0.3809 0.58331,-0.8965 0.57608,-1.4316 l -1.99981,0.027 z M 13.0962,7.08282 11.0964,7.10983 c 0.0148,1.09393 0.9058,1.97299 1.9998,1.97299 l 0,-2 z m 0.0946,6.99998 0,-2 c -0.5352,0 -1.0479,0.2145 -1.4238,0.5954 -0.3758,0.3809 -0.5833,0.8966 -0.5761,1.4316 l 1.9999,-0.027 z m 0.1418,10.5 0,-2 c -0.5351,0 -1.0479,0.2145 -1.4238,0.5954 -0.3758,0.3809 -0.5833,0.8966 -0.576,1.4316 l 1.9998,-0.027 z m -6.00057,0 1.99982,-0.027 C 9.31707,23.4619 8.42606,22.5828 7.33203,22.5828 l 0,2 z M 7.09568,7.08282 l 0,2 c 0.53511,0 1.04791,-0.21444 1.42373,-0.59537 C 8.89523,8.10652 9.10272,7.59087 9.09549,7.05581 L 7.09568,7.08282 Z m 0.09454,6.99998 1.99981,-0.027 C 9.17526,12.9619 8.28425,12.0828 7.19022,12.0828 l 0,2 z m 4.76888,56.9043 c 0.0075,0.5522 -0.4341,1.0059 -0.9864,1.0134 l 0.054,3.9996 c 2.7612,-0.0373 4.9693,-2.3059 4.9321,-5.0671 l -3.9997,0.0541 z m -0.9864,1.0134 C 10.4205,72.0079 9.96676,71.5663 9.9593,71.0141 l -3.99963,0.054 c 0.03729,2.7612 2.30589,4.9693 5.06703,4.932 l -0.054,-3.9996 z M 9.0409,3.01351 C 9.03344,2.46128 9.47507,2.00756 10.0273,2.0001 L 9.97328,-1.99954 C 7.21211,-1.96225 5.00397,0.306357 5.04126,3.06753 L 9.0409,3.01351 Z M 10.0273,2.0001 c 0.5522,-0.00746 1.006,0.43417 1.0134,0.9864 L 15.0404,2.93248 C 15.0031,0.171311 12.7345,-2.03683 9.97328,-1.99954 L 10.0273,2.0001 Z M 5.5,5.08282 C 2.46243,5.08282 0,7.54525 0,10.5828 l 4,0 C 4,9.75439 4.67157,9.08282 5.5,9.08282 l 0,-4 z M 0,10.5828 c 0,3.0376 2.46243,5.5 5.5,5.5 l 0,-4 c -0.82843,0 -1.5,-0.6716 -1.5,-1.5 l -4,0 z m 14.4997,5.5 c 3.0376,0 5.5,-2.4624 5.5,-5.5 l -4,0 c 0,0.8284 -0.6716,1.5 -1.5,1.5 l 0,4 z m 5.5,-5.5 c 0,-3.03755 -2.4624,-5.49998 -5.5,-5.49998 l 0,4 c 0.8284,0 1.5,0.67157 1.5,1.49998 l 4,0 z m -16.4997,5 c -3.037566,0 -5.5,2.4624 -5.5,5.5 l 4,0 c 0,-0.8284 0.67157,-1.5 1.5,-1.5 l 0,-4 z m -5.5,5.5 c 0,3.0376 2.462434,5.5 5.5,5.5 l 0,-4 c -0.82843,0 -1.5,-0.6716 -1.5,-1.5 l -4,0 z m 18.4997,5.5 c 3.0376,0 5.5,-2.4624 5.5,-5.5 l -4,0 c 0,0.8284 -0.6716,1.5 -1.5,1.5 l 0,4 z m 5.5,-5.5 c 0,-3.0376 -2.4624,-5.5 -5.5,-5.5 l 0,4 c 0.8284,0 1.5,0.6716 1.5,1.5 l 4,0 z m -5.5,-5.5 -3.2617,0 0,4 3.2617,0 0,-4 z m -9.26221,0 -3.73749,0 0,4 3.73749,0 0,-4 z M 11.0407,2.9865 11.0964,7.10983 15.096,7.05581 15.0404,2.93248 11.0407,2.9865 Z m 0.1502,11.1233 0.0473,3.5 3.9997,-0.054 -0.0473,-3.5 -3.9997,0.054 z m 0.1419,10.5 0.6263,46.3773 3.9997,-0.0541 -0.6264,-46.3772 -3.9996,0.054 z m -7.8328,1.973 3.83203,0 0,-4 -3.83203,0 0,4 z m 9.8326,0 3.1671,0 0,-4 -3.1671,0 0,4 z m 1.1671,-21.49998 -1.4035,0 0,4 1.4035,0 0,-4 z m -7.40402,0 -1.59568,0 0,4 1.59568,0 0,-4 z M 5.5,16.0828 l 1.69022,0 0,-4 -1.69022,0 0,4 z m 7.6908,0 1.3089,0 0,-4 -1.3089,0 0,4 z M 9.9593,71.0141 9.33185,24.5558 5.33221,24.6098 5.95967,71.0681 9.9593,71.0141 Z m -0.722,-53.4583 -0.04727,-3.5 -3.99963,0.054 0.04727,3.5 3.99963,-0.054 z M 9.09549,7.05581 9.0409,3.01351 5.04126,3.06753 5.09586,7.10983 9.09549,7.05581 Z"
       inkscape:connector-curvature="0" />
    <path
       id="path11_fill"
       d="m 14.4997,15 c 1.933,0 3.5,-1.567 3.5,-3.5 0,-1.933 -1.567,-3.5 -3.5,-3.5 L 14,8 14,3.5 C 14,1.567 12.433,0 10.5,0 8.567,0 7,1.567 7,3.5 L 7,8 5.5,8 C 3.567,8 2,9.567 2,11.5 2,13.433 3.567,15 5.5,15 l 1.5,0 0,3.5 -3.5,0 C 1.567,18.5 0,20.067 0,22 c 0,1.933 1.567,3.5 3.5,3.5 l 3.5,0 0,24 c 0,1.933 1.567,3.5 3.5,3.5 1.933,0 3.5,-1.567 3.5,-3.5 l 0,-24 2.4997,0 c 1.933,0 3.5,-1.567 3.5,-3.5 0,-1.933 -1.567,-3.5 -3.5,-3.5 L 14,18.5 14,15 l 0.4997,0 z"
       inkscape:connector-curvature="0" />
    <path
       id="path12_stroke"
       d="m 0,8 0,81 c 0,4.4183 3.58172,8 8,8 l 124,0 c 4.418,0 8,-3.5817 8,-8 l 0,-81 c 0,-4.41828 -3.582,-8 -8,-8 L 8,0 C 3.58172,0 0,3.58172 0,8 Z M 4,89 4,8 C 4,5.79086 5.79086,4 8,4 l 124,0 c 2.209,0 4,1.79086 4,4 l 0,81 c 0,2.2091 -1.791,4 -4,4 L 8,93 C 5.79086,93 4,91.2091 4,89 Z"
       inkscape:connector-curvature="0" />
    <path
       id="path13_stroke"
       d="m 0,5 0,358 c 0,2.761 2.23858,5 5,5 l 29,0 c 2.7614,0 5,-2.239 5,-5 L 39,5 C 39,2.23858 36.7614,0 34,0 L 5,0 C 2.23858,0 0,2.23858 0,5 Z M 4,363 4,5 C 4,4.44772 4.44772,4 5,4 l 29,0 c 0.5523,0 1,0.44772 1,1 l 0,358 c 0,0.552 -0.4477,1 -1,1 l -29,0 c -0.55228,0 -1,-0.448 -1,-1 z"
       inkscape:connector-curvature="0" />
    <path
       id="path14_stroke"
       d="m 0,5 0,358 c 0,2.761 2.23858,5 5,5 l 28,0 c 2.7614,0 5,-2.239 5,-5 L 38,5 C 38,2.23858 35.7614,0 33,0 L 5,0 C 2.23858,0 0,2.23858 0,5 Z M 4,363 4,5 C 4,4.44772 4.44772,4 5,4 l 28,0 c 0.5523,0 1,0.44772 1,1 l 0,358 c 0,0.552 -0.4477,1 -1,1 l -28,0 c -0.55228,0 -1,-0.448 -1,-1 z"
       inkscape:connector-curvature="0" />
    <path
       id="path15_stroke"
       d="M 19,1 C 19,0.447715 18.5523,0 18,0 L 1,0 C 0.447715,0 0,0.447715 0,1 l 0,360 c 0,0.552 0.447715,1 1,1 l 17,0 c 0.5523,0 1,-0.448 1,-1 L 19,1 Z M 15,358 4,358 4,4 15,4 15,358 Z"
       inkscape:connector-curvature="0" />
    <path
       id="path16_stroke"
       d="m 49,157 0,2 2,0 0,-2 -2,0 z M 0,39.5543 -1.69176,38.4875 -2,38.9764 l 0,0.5779 2,0 z m 49,0 2,0 0,-0.5605 L 50.7087,38.5149 49,39.5543 Z M 49,155 l -46,0 0,4 46,0 0,-4 z M 2,154.022 C 2,138.86 2,71.3868 2,39.5543 l -4,0 c 0,31.8325 0,99.3057 0,114.4677 l 4,0 z M 1.69176,40.621 C 14.1903,20.7981 19.7345,10.8631 22.4932,5.91877 23.9402,3.32539 24.5039,2.3376 24.8651,1.91186 24.928,1.8337 24.8781,1.87907 24.8926,1.87393 24.8693,1.88194 24.6939,1.97055 24.6694,1.98467 24.6172,1.97672 24.5821,2 24.941,2 l 0,-4 c -0.3589,0 -0.9323,0.02328 -1.4745,0.16983 -0.7168,0.22601 -1.2349,0.6631 -1.6517,1.154383 C 21.1274,0.134537 20.3118,1.61889 19.0001,3.96979 16.2414,8.91407 10.7508,18.7561 -1.69176,38.4875 L 1.69176,40.621 Z M 24.941,2 C 25.3,2 25.2629,1.97641 25.2071,1.98345 25.1796,1.96811 24.9984,1.87549 24.971,1.86456 c 0.0109,0.00242 -0.0435,-0.04838 0.0154,0.02719 0.3465,0.41953 0.8845,1.39963 2.2758,3.9969 2.6484,4.94425 7.9718,14.88075 20.0291,34.70495 l 3.4174,-2.0787 C 38.707,18.7849 33.4366,8.9442 30.7882,3.99992 29.531,1.6529 28.7448,0.160865 28.0703,-0.655679 27.6587,-1.15402 27.1407,-1.59936 26.4178,-1.82894 25.8754,-1.97641 25.3,-2 24.941,-2 l 0,4 z M 47,39.5543 c 0,17.6473 0,47.0087 0,71.9587 0,12.474 0,23.846 0,32.099 0,4.127 0,7.474 0,9.789 0,1.158 0,2.057 0,2.668 0,0.305 0,0.538 0,0.694 0,0.079 0,0.138 0,0.177 0,0.02 0,0.035 0,0.045 0,0.005 0,0.009 0,0.011 0,0.001 0,0.002 0,0.003 0,0.001 0,0.001 2,0.001 2,0 2,0 2,-0.001 0,-0.001 0,-0.002 0,-0.003 0,-0.002 0,-0.006 0,-0.011 0,-0.01 0,-0.025 0,-0.045 0,-0.039 0,-0.098 0,-0.177 0,-0.156 0,-0.389 0,-0.694 0,-0.611 0,-1.51 0,-2.668 0,-2.315 0,-5.662 0,-9.789 0,-8.253 0,-19.625 0,-32.099 0,-24.95 0,-54.3114 0,-71.9587 l -4,0 z M 3,155 c -0.57172,0 -1,-0.445 -1,-0.978 l -4,0 C -2,156.803 0.25801,159 3,159 l 0,-4 z"
       inkscape:connector-curvature="0" />
    <path
       id="path17_stroke"
       d="m 0,156 -2,0 0,2 2,0 0,-2 z M 0,39.3023 -1.69855,38.2464 -2,38.7313 l 0,0.571 2,0 z m 48,0 2,0 0,-0.5537 L 49.7152,38.2738 48,39.3023 Z M 45,154 l -45,0 0,4 45,0 0,-4 z M 2,156 C 2,152.977 2,74.3721 2,39.3023 l -4,0 C -2,74.3721 -2,152.977 -2,156 l 4,0 z M 1.69855,40.3582 C 13.9421,20.6614 19.3732,10.7895 22.0756,5.87673 23.4935,3.29909 24.0452,2.31882 24.3978,1.8972 24.4586,1.82043 24.4073,1.86787 24.4196,1.86419 24.3937,1.8743 24.2143,1.96612 24.186,1.9817 24.1251,1.97609 24.0804,2 24.432,2 l 0,-4 c -0.3516,0 -0.9236,0.02391 -1.4645,0.17183 -0.7159,0.22896 -1.2292,0.67032 -1.638,1.159172 C 20.6549,0.137576 19.8554,1.61371 18.5709,3.94885 15.8685,8.86164 10.4899,18.6409 -1.69855,38.2464 l 3.3971,2.1118 z M 24.432,2 c 0.3516,0 0.305,-0.02423 0.2405,-0.01956 -0.0313,-0.01681 -0.2164,-0.1127 -0.2464,-0.12574 0.0089,9.6e-4 -0.0469,-0.05189 0.01,0.02232 0.3384,0.41552 0.865,1.38827 2.2282,3.96972 2.5944,4.91276 7.8092,14.78606 19.6205,34.48416 l 3.4304,-2.0571 C 37.9586,18.6695 32.7958,8.89163 30.2014,3.97884 28.9702,1.6475 28.1996,0.163858 27.5378,-0.648826 27.134,-1.1446 26.621,-1.59431 25.8988,-1.82692 25.3577,-1.97577 24.7836,-2 24.432,-2 l 0,4 z M 46,39.3023 c 0,3.3113 0,34.1326 0,62.9337 0,14.4 0,28.296 0,37.994 0,4.85 0,8.65 0,10.94 0,1.145 0,1.912 0,2.244 0,0.083 0,0.139 0,0.167 0,0.006 0,0.012 0,0.015 0,0.002 0,0.003 0,0.004 0,0.001 2,0.001 4,0.001 0,0 0,-0.008 0,-0.023 0,-0.059 0,-0.233 0,-0.532 l -4,0 c 0,0.299 0,0.473 0,0.532 0,0.015 0,0.023 0,0.023 2,0 4,0 4,-0.001 0,-0.001 0,-0.002 0,-0.004 0,-0.003 0,-0.009 0,-0.015 0,-0.028 0,-0.084 0,-0.167 0,-0.332 0,-1.099 0,-2.244 0,-2.29 0,-6.09 0,-10.94 0,-9.698 0,-23.594 0,-37.994 0,-28.8011 0,-59.6224 0,-62.9337 l -4,0 z M 45,158 c 2.7205,0 5,-2.152 5,-4.954 l -4,0 C 46,153.558 45.5932,154 45,154 l 0,4 z"
       inkscape:connector-curvature="0" />
    <path
       id="path18_stroke"
       d="m 0,129 -2,0 0,2 2,0 0,-2 z m 28.155,0 0,2 2,0 0,-2 -2,0 z M 0,24.5 -1.72635,23.4902 -2,23.958 l 0,0.542 2,0 z m 28.155,0 2,0 0,-0.5253 L 29.8968,23.5172 28.155,24.5 Z m 0,102.5 -28.155,0 0,4 28.155,0 0,-4 z M 2,129 C 2,126.5 2,53.5 2,24.5 l -4,0 c 0,29 0,102 0,104.5 l 4,0 z M 1.72635,25.5098 C 8.91731,13.2149 12.1119,7.04434 13.697,3.98184 14.5522,2.32968 14.833,1.80979 14.9826,1.61967 14.9931,1.60221 14.8976,1.69831 14.8636,1.73087 14.7887,1.78009 14.556,1.90603 14.4729,1.94145 14.2962,1.97322 14.1247,2 14.3309,2 l 0,-4 c -0.2062,0 -0.6871,0.02678 -1.1453,0.15426 -0.6337,0.21537 -1.0552,0.62171 -1.3463,0.991697 -0.4529,0.575501 -0.9647,1.58686 -1.6946,2.997203 C 8.55953,5.20566 5.41361,11.2851 -1.72635,23.4902 l 3.4527,2.0196 z M 14.3309,2 C 14.434,2 14.4514,1.99867 14.4605,2.00067 14.4547,1.99829 14.2757,1.96398 14.1839,1.94005 14.0981,1.9033 13.8603,1.7731 13.7824,1.72086 13.7459,1.68561 13.6473,1.58425 13.6554,1.59928 c 0.1414,0.18449 0.4085,0.69757 1.2312,2.35321 1.5217,3.0625 4.5893,9.23421 11.5265,21.53031 l 3.4837,-1.9656 C 23.01,11.3133 19.9905,5.23501 18.4687,2.17251 17.7696,0.765651 17.2758,-0.252523 16.8305,-0.833658 16.5421,-1.20996 16.1201,-1.62502 15.4794,-1.84435 14.9611,-2.02177 14.4404,-2 14.3309,-2 l 0,4 z M 26.155,24.5 c 0,7.1468 0,17.1176 0,28.0866 l 4,0 c 0,-10.969 0,-20.9398 0,-28.0866 l -4,0 z m 0,28.0866 c 0,16.7703 0,35.8736 0,50.7844 0,7.455 0,13.863 0,18.406 0,2.272 0,4.077 0,5.315 0,0.619 0,1.096 0,1.418 0,0.161 0,0.284 0,0.366 0,0.041 0,0.072 0,0.093 0,0.01 0,0.018 0,0.023 0,0.003 0,0.005 0,0.006 0,0.001 0,0.001 0,0.002 0,0 0,0 2,0 2,0 2,0 2,0 0,-0.001 0,-0.001 0,-0.002 0,-10e-4 0,-0.003 0,-0.006 0,-0.005 0,-0.013 0,-0.023 0,-0.021 0,-0.052 0,-0.093 0,-0.082 0,-0.205 0,-0.366 0,-0.322 0,-0.799 0,-1.418 0,-1.238 0,-3.043 0,-5.315 0,-4.543 0,-10.951 0,-18.406 0,-14.9108 0,-34.0141 0,-50.7844 l -4,0 z"
       inkscape:connector-curvature="0" />
    <path
       id="path19_stroke"
       d="m 0,129 -2,0 0,2 2,0 0,-2 z m 28.155,0 0,2 2,0 0,-2 -2,0 z M 0,25.5 -1.74353,24.5201 -2,24.9765 -2,25.5 l 2,0 z m 28.155,0 2,0 0,-0.5072 -0.2418,-0.446 L 28.155,25.5 Z m 0,101.5 -28.155,0 0,4 28.155,0 0,-4 z M 2,129 C 2,126.5 2,54.5 2,25.5 l -4,0 c 0,29 0,101 0,103.5 l 4,0 z M 1.74353,26.4799 C 8.93318,13.6855 12.1265,7.26555 13.7116,4.07805 14.5641,2.36393 14.8504,1.81077 15.0063,1.60466 15.0186,1.58405 14.9266,1.6803 14.894,1.71293 14.819,1.76425 14.5827,1.89711 14.4963,1.93528 14.4012,1.96097 14.2156,1.99774 14.2068,2.00049 14.2133,1.99857 14.2278,2 14.3309,2 l 0,-4 c -0.1087,0 -0.6396,-0.02289 -1.1687,0.16433 -0.6442,0.22789 -1.0633,0.65326 -1.3466,1.027888 C 11.369,-0.217023 10.8628,0.823568 10.1301,2.29695 8.54493,5.48445 5.39774,11.8145 -1.74353,24.5201 l 3.48706,1.9598 z M 14.3309,2 C 14.434,2 14.4484,1.99856 14.4546,2.00048 14.4453,1.99766 14.2574,1.96027 14.1604,1.93379 14.0712,1.89422 13.83,1.75697 13.752,1.7026 13.7171,1.66729 13.6222,1.56592 13.6324,1.58419 c 0.1478,0.2008 0.4205,0.74759 1.2404,2.46498 1.5217,3.1875 4.588,9.60853 11.5239,22.40403 l 3.5165,-1.9064 C 23.0251,11.8423 20.0043,5.51333 18.4825,2.32583 17.7806,0.855719 17.2924,-0.191236 16.8535,-0.787316 16.5734,-1.16781 16.1542,-1.60213 15.5029,-1.83419 14.972,-2.02334 14.4374,-2 14.3309,-2 l 0,4 z M 26.155,25.5 c 0,7.1468 0,17.0569 0,27.9343 l 4,0 c 0,-10.8774 0,-20.7875 0,-27.9343 l -4,0 z m 0,27.9343 c 0,16.6304 0,35.5218 0,50.2557 0,7.367 0,13.694 0,18.18 0,2.243 0,4.026 0,5.247 0,0.611 0,1.082 0,1.4 0,0.159 0,0.28 0,0.361 0,0.04 0,0.071 0,0.091 0,0.01 0,0.018 0,0.023 0,0.003 0,0.005 0,0.006 0,0.001 0,0.001 0,0.002 0,0 0,0 2,0 2,0 2,0 2,0 0,-0.001 0,-0.001 0,-0.002 0,-10e-4 0,-0.003 0,-0.006 0,-0.005 0,-0.013 0,-0.023 0,-0.02 0,-0.051 0,-0.091 0,-0.081 0,-0.202 0,-0.361 0,-0.318 0,-0.789 0,-1.4 0,-1.221 0,-3.004 0,-5.247 0,-4.486 0,-10.813 0,-18.18 0,-14.7339 0,-33.6253 0,-50.2557 l -4,0 z"
       inkscape:connector-curvature="0" />
    <path
       id="path20_stroke"
       d="M 18,2 C 18,0.895431 17.1046,0 16,0 L 2,0 C 0.895431,0 0,0.895431 0,2 l 0,386 c 0,1.105 0.895431,2 2,2 l 14,0 c 1.1046,0 2,-0.895 2,-2 L 18,2 Z M 14,386 4,386 4,4 14,4 14,386 Z"
       inkscape:connector-curvature="0" />
    <path
       id="path21_stroke"
       d="M 7,2 C 7,0.895431 6.10457,0 5,0 L 2,0 C 0.895431,0 0,0.895431 0,2 l 0,45.7778 c 0,1.1045 0.895431,2 2,2 l 3,0 c 1.10457,0 2,-0.8955 2,-2 L 7,2 Z"
       inkscape:connector-curvature="0" />
    <path
       id="path22_stroke"
       d="m 4,4 244,0 4,0 c 0,-2.20914 -1.791,-4 -4,-4 L 4,0 C 1.79086,0 0,1.79086 0,4 L 4,4 C 3.99889,4 4.00438,3.99562 4,4 Z M 248,4 248,31 4,31 4,4 C 3.99889,4 4.00438,3.99562 4,4 L 0,4 0,31 c 0,2.2091 1.79086,4 4,4 l 244,0 c 2.209,0 4,-1.7909 4,-4 l 0,-27 -4,0 z"
       inkscape:connector-curvature="0" />
    <path
       id="path23_stroke"
       d="M 38,262 4,262 4,26.274 21,6.19107 38,26.274 38,262 Z m -38,0 0,4 4,0 34,0 4,0 0,-4 L 42,24.8083 22.2922,1.52652 c -0.7137,-0.843074 -1.8707,-0.843074 -2.5844,0 L 0,24.8083 0,262 Z"
       inkscape:connector-curvature="0" />
    <path
       id="path24_stroke"
       d="M 24,212 4,212 4,21.3985 14,7.00917 24,21.3985 24,212 Z m -20,4 20,0 4,0 0,-4 L 28,20.1451 15.1414,1.64234 c -0.6304,-0.907038 -1.6524,-0.907038 -2.2828,0 L 0,20.1451 0,212 l 0,4 4,0 z"
       inkscape:connector-curvature="0" />
    <path
       id="path25_stroke"
       d="M 24,214 4,214 4,21.5756 14,7.053 24,21.5756 24,214 Z m -20,4 20,0 4,0 0,-4 L 28,20.3316 15.1343,1.64725 c -0.6265,-0.909751 -1.6421,-0.909751 -2.2686,0 L 0,20.3316 0,214 l 0,4 4,0 z"
       inkscape:connector-curvature="0" />
    <path
       id="path26_stroke"
       d="m 0.854807,145 -1.997287,0.104 0.09883,1.896 1.898457,0 0,-2 z m 69.309893,0 0,2 1.8897,0 0.1071,-1.887 L 70.1647,145 Z m -2.3666,-85.5498 -1.9829,0.2609 1.9829,-0.2609 z M 70.1647,143 l -69.309893,0 0,4 69.309893,0 0,-4 z M 36.1336,2 c 7.8548,0 14.184,5.77555 19.199,16.3408 5.0351,10.5796 8.3495,25.1403 10.4826,41.3703 l 3.9659,-0.5218 C 67.6191,42.7742 64.1469,27.6098 58.9462,16.6256 53.7255,5.62703 46.37,-2 36.1336,-2 l 0,4 z m 29.6816,57.7111 c 3.7714,28.6304 3.6839,61.7399 2.3527,85.1759 l 3.9936,0.226 c 1.3358,-23.544 1.4169,-57.0279 -2.3804,-85.9237 l -3.9659,0.5218 z M 2.8521,144.896 C 1.91444,126.915 1.58952,105.817 2.70572,85.3389 L -1.28836,85.1215 C -2.40972,105.739 -2.08329,127.05 -1.14248,145.104 L 2.8521,144.896 Z M 2.70572,85.3389 C 3.90119,63.3535 6.72142,42.3261 12.2246,26.731 17.7527,11.0337 25.5648,2 36.1336,2 l 0,-4 C 22.7451,-2 14.0461,9.51681 8.45173,25.4023 2.83246,41.3901 -0.0811208,62.9778 -1.28836,85.1215 l 3.99408,0.2174 z"
       inkscape:connector-curvature="0" />
    <path
       id="path27_stroke"
       d="m 0.806649,140 -1.997409,0.102 0.09671,1.898 1.900699,0 0,-2 z m 65.405151,0 0,2 1.8921,0 0.1048,-1.889 L 66.2118,140 Z m 0,-2 -65.405151,0 0,4 65.405151,0 0,-4 z M 34.0979,2 c 7.3207,0 13.2704,5.50983 18.0081,15.722 4.7498,10.2108 7.8761,24.2642 9.8889,39.9332 l 3.9673,-0.5101 C 63.9219,41.2948 60.6439,26.6481 55.7346,16.0387 50.8132,5.4306 43.8492,-2 34.0979,-2 l 0,4 z m 27.897,55.6552 c 3.5587,27.6416 3.476,59.6068 2.22,82.2338 l 3.9938,0.222 c 1.2606,-22.733 1.337,-55.0648 -2.2465,-82.9659 l -3.9673,0.5101 z M 2.80406,139.898 C 1.91925,122.538 1.61264,102.169 2.66592,82.3976 l -3.99435,-0.2125 c -1.0582,19.9079 -0.75015,40.4849 0.13767,57.9169 l 3.99482,-0.204 z M 2.66592,82.3976 C 3.79397,61.1713 6.45462,40.8729 11.6468,25.8188 16.8716,10.6392 24.2291,2 34.0979,2 l 0,-4 C 21.3591,-2 13.1357,9.20269 7.8646,24.517 2.56098,39.9566 -0.189133,60.8039 -1.32843,82.1851 l 3.99435,0.2125 z"
       inkscape:connector-curvature="0" />
    <path
       id="path28_stroke"
       d="m 0.806649,145 -1.997589,0.098 0.09356,1.902 1.904029,0 0,-2 z m 65.405151,0 0,2 1.8957,0 0.1014,-1.893 L 66.2118,145 Z m 0,-2 -65.405151,0 0,4 65.405151,0 0,-4 z M 34.0979,2 c 7.283,0 13.2427,5.6865 17.9972,16.3008 4.7542,10.5871 7.885,25.161 9.8987,41.3958 l 3.9695,-0.4928 C 63.9239,42.7935 60.6504,27.6423 55.7456,16.6656 50.841,5.71609 43.8869,-2 34.0979,-2 l 0,4 z m 27.8959,57.6966 c 3.5595,28.6378 3.4771,61.7574 2.2208,85.1964 l 3.9943,0.214 C 69.4693,121.566 69.546,88.0923 65.9633,59.2038 l -3.9695,0.4928 z M 2.80423,144.902 C 1.91932,126.919 1.61267,105.815 2.66611,85.3329 l -3.99473,-0.2052 c -1.05804,20.6133 -0.75004,41.9183 0.13768,59.9703 l 3.99517,-0.196 z M 2.66611,85.3329 C 3.79453,63.3431 6.45802,42.3016 11.6537,26.6975 14.2277,18.9357 17.2968,12.7735 21.1542,8.43635 24.879,4.22362 29.1396,2 34.0979,2 l 0,-4 C 27.7524,-2 22.4659,0.91402 18.1575,5.7868 13.9817,10.5351 10.5316,17.4063 7.85778,25.436 2.55757,41.4147 -0.189701,62.9883 -1.32862,85.1277 l 3.99473,0.2052 z"
       inkscape:connector-curvature="0" />
    <path
       id="path29_stroke"
       d="M 0.204672,67 -1.7946,67.054 -1.74203,69 l 1.946702,0 0,-2 z M 16.8,67 l 0,2 1.942,0 0.0571,-1.9412 L 16.8,67 Z m 0,-2 -16.595328,0 0,4 16.595328,0 0,-4 z M 8.65171,2 C 8.654,2 9.0816,1.98901 9.80167,3.19578 10.5426,4.4185 11.1526,6.16114 11.7392,8.55616 12.9388,13.4175 13.7278,20.1136 14.238,27.6062 l 3.9907,-0.2721 C 17.7105,19.7424 16.8746,12.7034 15.6234,7.60077 14.9845,5.01379 14.1627,2.7172 13.2367,1.14618 12.2897,-0.440773 10.8153,-2 8.65171,-2 l 0,4 z M 14.238,27.6062 c 0.9026,13.2212 0.8815,28.5091 0.5629,39.335 l 3.9982,0.1176 C 19.119,56.1768 19.1383,40.6939 18.2287,27.3341 L 14.238,27.6062 Z M 2.20394,66.946 C 1.97948,58.6398 1.9017,48.897 2.16889,39.4386 L -1.82952,39.3258 C -2.09809,48.8565 -2.01991,58.7097 -1.7946,67.054 L 2.20394,66.946 Z M 2.16889,39.4386 C 2.45494,29.2846 3.12816,19.5908 4.44285,12.4036 5.09103,8.84104 5.83996,6.08968 6.78647,4.15955 7.75771,2.15913 8.47215,2 8.65171,2 l 0,-4 C 5.96315,-2 4.25518,0.214804 3.18816,2.4125 2.09641,4.68049 1.19121,7.95142 0.507831,11.6855 -0.840604,19.0918 -1.54027,29.0891 -1.82952,39.3258 l 3.99841,0.1128 z"
       inkscape:connector-curvature="0" />
    <path
       id="path30_stroke"
       d="m 2,-4 c -1.104569,0 -2,0.89543 -2,2 0,1.104569 0.895431,2 2,2 l 0,-4 z m 121.503,4 c 1.105,0 2,-0.895431 2,-2 0,-1.10457 -0.895,-2 -2,-2 l 0,4 z M 2,0 l 121.503,0 0,-4 L 2,-4 2,0 Z"
       inkscape:connector-curvature="0" />
    <path
       id="path31_stroke"
       d="m 2,-4 c -1.104569,0 -2,0.89543 -2,2 0,1.104569 0.895431,2 2,2 l 0,-4 z m 26,4 c 1.1046,0 2,-0.895431 2,-2 0,-1.10457 -0.8954,-2 -2,-2 l 0,4 z M 2,0 28,0 28,-4 2,-4 2,0 Z"
       inkscape:connector-curvature="0" />
    <path
       id="path32_stroke"
       d="m 2,-4 c -1.104569,0 -2,0.89543 -2,2 0,1.104569 0.895431,2 2,2 l 0,-4 z m 22,4 c 1.1046,0 2,-0.895431 2,-2 0,-1.10457 -0.8954,-2 -2,-2 l 0,4 z M 2,0 24,0 24,-4 2,-4 2,0 Z"
       inkscape:connector-curvature="0" />
  </defs>
</svg>
