<svg width="2358" height="2346" viewBox="0 0 2358 2346" version="2.0" xmlns="http://www.w3.org/2000/svg" xmlns:xlink="http://www.w3.org/1999/xlink" xmlns:figma="http://www.figma.com/figma/ns">
<title>Group</title>
<desc>Created using Figma (9000)</desc>
<g id="Canvas" transform="matrix(3 0 0 3 -1989 -2052)" figma:type="canvas">
<g id="Group" style="mix-blend-mode:normal;" figma:type="group">
<g id="Rectangle 6" style="mix-blend-mode:normal;" figma:type="rounded-rectangle">
<use xlink:href="#path0_stroke" transform="translate(668.032 1245.01)" style="mix-blend-mode:normal;"/>
</g>
<g id="Union" style="mix-blend-mode:normal;" figma:type="vector-operation">
<use xlink:href="#path1_stroke" transform="translate(884.032 715.014)" style="mix-blend-mode:normal;"/>
</g>
<g id="Rectangle 5" style="mix-blend-mode:normal;" figma:type="rounded-rectangle">
<use xlink:href="#path2_stroke" transform="translate(1097.03 738.006)" style="mix-blend-mode:normal;"/>
</g>
<g id="Rectangle 5" style="mix-blend-mode:normal;" figma:type="rounded-rectangle">
<use xlink:href="#path2_stroke" transform="translate(1002.03 738.006)" style="mix-blend-mode:normal;"/>
</g>
<g id="Rectangle 5" style="mix-blend-mode:normal;" figma:type="rounded-rectangle">
<use xlink:href="#path3_stroke" transform="translate(1090.03 754.006)" style="mix-blend-mode:normal;"/>
</g>
<g id="Rectangle 5" style="mix-blend-mode:normal;" figma:type="rounded-rectangle">
<use xlink:href="#path3_stroke" transform="translate(993.532 754.548)" style="mix-blend-mode:normal;"/>
</g>
<g id="Rectangle 2" style="mix-blend-mode:normal;" figma:type="rounded-rectangle">
<use xlink:href="#path4_stroke" transform="translate(916.032 1241.01)" style="mix-blend-mode:normal;"/>
</g>
<g id="Vector 2" style="mix-blend-mode:normal;" figma:type="vector">
<use xlink:href="#path5_stroke" transform="translate(1004.03 1274.01)" style="mix-blend-mode:normal;"/>
</g>
<g id="Rectangle" style="mix-blend-mode:normal;" figma:type="vector">
<use xlink:href="#path6_stroke" transform="translate(951.032 983.006)" style="mix-blend-mode:normal;"/>
</g>
<g id="Rectangle" style="mix-blend-mode:normal;" figma:type="vector">
<use xlink:href="#path7_stroke" transform="translate(1127.03 983.006)" style="mix-blend-mode:normal;"/>
</g>
<g id="Rectangle 2" style="mix-blend-mode:normal;" figma:type="rounded-rectangle">
<use xlink:href="#path8_stroke" transform="translate(1149.03 1219.01)" style="mix-blend-mode:normal;"/>
</g>
<g id="Rectangle 2" style="mix-blend-mode:normal;" figma:type="rounded-rectangle">
<use xlink:href="#path8_stroke" transform="translate(916.032 1220.01)" style="mix-blend-mode:normal;"/>
</g>
<g id="Union" style="mix-blend-mode:normal;" figma:type="vector-operation">
<use xlink:href="#path9_stroke" transform="translate(1185.03 1188.01)" style="mix-blend-mode:normal;"/>
</g>
<g id="Union" style="mix-blend-mode:normal;" figma:type="vector-operation">
<use xlink:href="#path9_stroke" transform="translate(1094.03 686.054)" style="mix-blend-mode:normal;"/>
</g>
<g id="Union" style="mix-blend-mode:normal;" figma:type="vector-operation">
<use xlink:href="#path10_stroke" transform="translate(1046.03 729.965)" style="mix-blend-mode:normal;"/>
</g>
<g id="Union" style="mix-blend-mode:normal;" figma:type="vector-operation">
<use xlink:href="#path9_stroke" transform="translate(998.033 686.054)" style="mix-blend-mode:normal;"/>
</g>
<g id="Union" style="mix-blend-mode:normal;" figma:type="vector-operation">
<use xlink:href="#path9_stroke" transform="translate(909.033 1188.01)" style="mix-blend-mode:normal;"/>
</g>
<g id="Union" style="mix-blend-mode:normal;" figma:type="vector-operation">
<use xlink:href="#path9_stroke" transform="translate(837.033 1199.28)" style="mix-blend-mode:normal;"/>
</g>
<g id="Union" style="mix-blend-mode:normal;" figma:type="vector-operation">
<use xlink:href="#path9_stroke" transform="translate(749.032 1199.01)" style="mix-blend-mode:normal;"/>
</g>
<g id="Union" style="mix-blend-mode:normal;" figma:type="vector-operation">
<use xlink:href="#path9_stroke" transform="translate(666.032 1199.73)" style="mix-blend-mode:normal;"/>
</g>
<g id="Union" style="mix-blend-mode:normal;" figma:type="vector-operation">
<use xlink:href="#path9_stroke" transform="translate(1219.03 1292.51)" style="mix-blend-mode:normal;"/>
</g>
<g id="Union" style="mix-blend-mode:normal;" figma:type="vector-operation">
<use xlink:href="#path11_fill" transform="translate(875.033 1291.01)" fill="url(#paint21_linear)" style="mix-blend-mode:normal;"/>
<use xlink:href="#path9_stroke" transform="translate(875.033 1291.01)" style="mix-blend-mode:normal;"/>
</g>
<g id="Rectangle 4" style="mix-blend-mode:normal;" figma:type="rounded-rectangle">
<use xlink:href="#path12_stroke" transform="translate(987.032 801.006)" style="mix-blend-mode:normal;"/>
</g>
<g id="Rectangle 3" style="mix-blend-mode:normal;" figma:type="rounded-rectangle">
<use xlink:href="#path13_stroke" transform="translate(1096.03 877.006)" style="mix-blend-mode:normal;"/>
</g>
<g id="Rectangle 3" style="mix-blend-mode:normal;" figma:type="rounded-rectangle">
<use xlink:href="#path14_stroke" transform="translate(979.032 877.006)" style="mix-blend-mode:normal;"/>
</g>
<g id="Rectangle 3" style="mix-blend-mode:normal;" figma:type="rounded-rectangle">
<use xlink:href="#path15_stroke" transform="translate(1047.03 881.895)" style="mix-blend-mode:normal;"/>
</g>
<g id="Vector 2" style="mix-blend-mode:normal;" figma:type="vector">
<use xlink:href="#path16_stroke" transform="translate(1008.03 832.006)" style="mix-blend-mode:normal;"/>
</g>
<g id="Vector 2" style="mix-blend-mode:normal;" figma:type="vector">
<use xlink:href="#path17_stroke" transform="translate(1057.03 833.006)" style="mix-blend-mode:normal;"/>
</g>
<g id="Vector 2" style="mix-blend-mode:normal;" figma:type="vector">
<use xlink:href="#path18_stroke" transform="translate(1018.38 851.006)" style="mix-blend-mode:normal;"/>
</g>
<g id="Vector 2" style="mix-blend-mode:normal;" figma:type="vector">
<use xlink:href="#path19_stroke" transform="translate(1066.88 851.006)" style="mix-blend-mode:normal;"/>
</g>
<g id="Rectangle 3" style="mix-blend-mode:normal;" figma:type="rounded-rectangle">
<use xlink:href="#path20_stroke" transform="translate(1048.03 854.006)" style="mix-blend-mode:normal;"/>
</g>
<g id="Rectangle 3" style="mix-blend-mode:normal;" figma:type="rounded-rectangle">
<use xlink:href="#path21_stroke" transform="translate(1029.03 1038.01)" style="mix-blend-mode:normal;"/>
</g>
<g id="Rectangle 3" style="mix-blend-mode:normal;" figma:type="rounded-rectangle">
<use xlink:href="#path21_stroke" transform="translate(1077.75 1038.01)" style="mix-blend-mode:normal;"/>
</g>
<g id="Rectangle 7" style="mix-blend-mode:normal;" figma:type="rounded-rectangle">
<use xlink:href="#path22_stroke" transform="translate(668.032 1244.01)" style="mix-blend-mode:normal;"/>
</g>
<g id="Rectangle" style="mix-blend-mode:normal;" figma:type="vector">
<use xlink:href="#path23_stroke" transform="translate(1117.03 1199.01)" style="mix-blend-mode:normal;"/>
</g>
<g id="Rectangle" style="mix-blend-mode:normal;" figma:type="vector">
<use xlink:href="#path23_stroke" transform="translate(951.457 1199.01)" style="mix-blend-mode:normal;"/>
</g>
<g id="Rectangle" style="mix-blend-mode:normal;" figma:type="vector">
<use xlink:href="#path24_stroke" transform="translate(746.032 1226.01)" style="mix-blend-mode:normal;"/>
</g>
<g id="Rectangle" style="mix-blend-mode:normal;" figma:type="vector">
<use xlink:href="#path25_stroke" transform="translate(663.032 1226.01)" style="mix-blend-mode:normal;"/>
</g>
<g id="Rectangle" style="mix-blend-mode:normal;" figma:type="vector">
<use xlink:href="#path25_stroke" transform="translate(833.032 1226.01)" style="mix-blend-mode:normal;"/>
</g>
<g id="Group" style="mix-blend-mode:normal;" figma:type="group">
<g id="Vector 2" style="mix-blend-mode:normal;" figma:type="vector">
<use xlink:href="#path26_stroke" transform="translate(1021.03 1295.01)" style="mix-blend-mode:normal;"/>
</g>
<g id="Vector 2" style="mix-blend-mode:normal;" figma:type="vector">
<use xlink:href="#path27_stroke" transform="translate(772.032 1293.01)" style="mix-blend-mode:normal;"/>
</g>
<g id="Vector 2" style="mix-blend-mode:normal;" figma:type="vector">
<use xlink:href="#path28_stroke" transform="translate(682.032 1290.01)" style="mix-blend-mode:normal;"/>
</g>
<g id="Vector 2" style="mix-blend-mode:normal;" figma:type="vector">
<use xlink:href="#path29_stroke" transform="translate(1024.07 1145.78)" style="mix-blend-mode:normal;"/>
</g>
<g id="Vector 2" style="mix-blend-mode:normal;" figma:type="vector">
<use xlink:href="#path29_stroke" transform="translate(1071 1145.78)" style="mix-blend-mode:normal;"/>
</g>
<g id="Vector 2" style="mix-blend-mode:normal;" figma:type="vector">
<use xlink:href="#path27_stroke" transform="translate(1359.61 1291.01)" style="mix-blend-mode:normal;"/>
</g>
<g id="Vector 2" style="mix-blend-mode:normal;" figma:type="vector">
<use xlink:href="#path28_stroke" transform="translate(1269.61 1290.01)" style="mix-blend-mode:normal;"/>
</g>
</g>
<g id="Union" style="mix-blend-mode:normal;" figma:type="vector-operation">
<use xlink:href="#path9_stroke" transform="translate(1424.61 1199.28)" style="mix-blend-mode:normal;"/>
</g>
<g id="Union" style="mix-blend-mode:normal;" figma:type="vector-operation">
<use xlink:href="#path9_stroke" transform="translate(1336.61 1199.01)" style="mix-blend-mode:normal;"/>
</g>
<g id="Union" style="mix-blend-mode:normal;" figma:type="vector-operation">
<use xlink:href="#path9_stroke" transform="translate(1253.61 1199.73)" style="mix-blend-mode:normal;"/>
</g>
<g id="Rectangle 7" style="mix-blend-mode:normal;" figma:type="rounded-rectangle">
<use xlink:href="#path22_stroke" transform="translate(1195.03 1245.01)" style="mix-blend-mode:normal;"/>
</g>
<g id="Rectangle" style="mix-blend-mode:normal;" figma:type="vector">
<use xlink:href="#path24_stroke" transform="translate(1333.61 1226.01)" style="mix-blend-mode:normal;"/>
</g>
<g id="Rectangle" style="mix-blend-mode:normal;" figma:type="vector">
<use xlink:href="#path25_stroke" transform="translate(1250.61 1226.01)" style="mix-blend-mode:normal;"/>
</g>
<g id="Rectangle" style="mix-blend-mode:normal;" figma:type="vector">
<use xlink:href="#path25_stroke" transform="translate(1420.61 1226.01)" style="mix-blend-mode:normal;"/>
</g>
<g id="Group" style="mix-blend-mode:normal;" figma:type="group">
<g id="Line 2" style="mix-blend-mode:normal;" figma:type="line">
<use xlink:href="#path30_stroke" transform="matrix(-0.00565345 0.999984 -0.999984 -0.00565345 1079.76 854.006)" style="mix-blend-mode:normal;"/>
</g>
<g id="Line 2" style="mix-blend-mode:normal;" figma:type="line">
<use xlink:href="#path31_stroke" transform="matrix(-1 3.23109e-15 -3.23109e-15 -1 1096.03 937.006)" style="mix-blend-mode:normal;"/>
</g>
<g id="Line 2" style="mix-blend-mode:normal;" figma:type="line">
<use xlink:href="#path32_stroke" transform="matrix(-1 3.23109e-15 -3.23109e-15 -1 1093.03 896.006)" style="mix-blend-mode:normal;"/>
</g>
</g>
<g id="Group" style="mix-blend-mode:normal;" figma:type="group">
<g id="Line 2" style="mix-blend-mode:normal;" figma:type="line">
<use xlink:href="#path30_stroke" transform="matrix(-0.00565345 0.999984 -0.999984 -0.00565345 1030.76 854.505)" style="mix-blend-mode:normal;"/>
</g>
<g id="Line 2" style="mix-blend-mode:normal;" figma:type="line">
<use xlink:href="#path31_stroke" transform="matrix(-1 3.23109e-15 -3.23109e-15 -1 1047.03 937.006)" style="mix-blend-mode:normal;"/>
</g>
<g id="Line 2" style="mix-blend-mode:normal;" figma:type="line">
<use xlink:href="#path32_stroke" transform="matrix(-1 3.23109e-15 -3.23109e-15 -1 1045.03 896.006)" style="mix-blend-mode:normal;"/>
</g>
</g>
</g>
</g>
<defs>
<linearGradient id="paint21_linear" x1="0" y1="0" x2="1" y2="0" gradientUnits="userSpaceOnUse" gradientTransform="matrix(1.22463e-15 53 -19.9997 3.24531e-15 19.9997 -3.24531e-15)">
<stop offset="0" stop-color="#FFFFFF"/>
<stop offset="1" stop-color="#FFFFFF" stop-opacity="0"/>
</linearGradient>
<path id="path0_stroke" d="
M 0 8
L 0 185
C 0 189.418 3.58172 193 8 193
L 769 193
C 773.418 193 777 189.418 777 185
L 777 8
C 777 3.58172 773.418 0 769 0
L 8 0
C 3.58172 0 0 3.58172 0 8
Z
M 4 185
L 4 8
C 4 5.79086 5.79086 4 8 4
L 769 4
C 771.209 4 773 5.79086 773 8
L 773 185
C 773 187.209 771.209 189 769 189
L 8 189
C 5.79086 189 4 187.209 4 185
Z"/>
<path id="path1_stroke" d="
M 3.89758 624.965
L 4.34727 626.913
L 3.89758 624.965
Z
M 33.8233 618.059
L 33.3736 616.11
L 33.8233 618.059
Z
M 68.0353 508.866
L 68.4093 510.83
L 68.0353 508.866
Z
M 73.9903 409.849
L 75.9887 409.93
L 73.9903 409.849
Z
M 98.0257 390.579
L 99.1954 392.202
L 98.0257 390.579
Z
M 99.0834 359.654
L 97.0837 359.692
L 99.0834 359.654
Z
M 107.557 161.82
L 109.165 163.009
C 109.419 162.665 109.557 162.248 109.557 161.82
L 107.557 161.82
Z
M 113.883 95.7464
L 115.435 97.0089
C 115.725 96.6522 115.883 96.2063 115.883 95.7464
L 113.883 95.7464
Z
M 113.883 44.0276
L 113.883 42.0276
C 112.779 42.0276 111.883 42.923 111.883 44.0276
L 113.883 44.0276
Z
M 116.217 32.3531
L 114.596 31.1816
C 114.349 31.5225 114.217 31.9324 114.217 32.3531
L 116.217 32.3531
Z
M 119.38 27.9761
L 121.001 29.1476
C 121.247 28.8067 121.38 28.3967 121.38 27.9761
L 119.38 27.9761
Z
M 121.56 22.8135
L 121.56 24.8135
C 122.664 24.8135 123.56 23.9181 123.56 22.8135
L 121.56 22.8135
Z
M 123.01 13.0647
L 123.01 15.0647
C 124.115 15.0647 125.01 14.1693 125.01 13.0647
L 123.01 13.0647
Z
M 123.01 3.5794
L 121.204 2.71994
C 121.076 2.98844 121.01 3.28205 121.01 3.5794
L 123.01 3.5794
Z
M 124.526 0.394946
L 126.332 1.25441
L 124.526 0.394946
Z
M 127.652 3.5794
L 129.652 3.5794
C 129.652 3.18788 129.537 2.80498 129.321 2.47815
L 127.652 3.5794
Z
M 127.652 13.0647
L 125.652 13.0647
C 125.652 14.1693 126.547 15.0647 127.652 15.0647
L 127.652 13.0647
Z
M 129.102 22.8135
L 127.102 22.8135
C 127.102 23.9181 127.997 24.8135 129.102 24.8135
L 129.102 22.8135
Z
M 131.133 27.9761
L 129.133 27.9761
C 129.133 28.3995 129.267 28.8121 129.517 29.1543
L 131.133 27.9761
Z
M 134.324 32.3531
L 136.324 32.3531
C 136.324 31.9296 136.189 31.5171 135.94 31.1749
L 134.324 32.3531
Z
M 136.354 44.0276
L 138.354 44.0276
C 138.354 42.923 137.459 42.0276 136.354 42.0276
L 136.354 44.0276
Z
M 136.354 86.8394
L 134.354 86.8394
C 134.354 87.944 135.25 88.8394 136.354 88.8394
L 136.354 86.8394
Z
M 151.149 86.8394
L 151.149 88.8394
C 152.253 88.8394 153.149 87.944 153.149 86.8394
L 151.149 86.8394
Z
M 151.149 77.881
L 151.149 75.881
C 150.044 75.881 149.149 76.7765 149.149 77.881
L 151.149 77.881
Z
M 161.882 77.881
L 163.882 77.881
C 163.882 76.7765 162.987 75.881 161.882 75.881
L 161.882 77.881
Z
M 161.882 86.8394
L 159.882 86.8394
C 159.882 87.944 160.778 88.8394 161.882 88.8394
L 161.882 86.8394
Z
M 170.132 67.0137
L 170.132 69.0137
C 171.236 69.0137 172.132 68.1183 172.132 67.0137
L 170.132 67.0137
Z
M 170.132 51.7828
L 168.365 50.846
C 168.212 51.1345 168.132 51.4562 168.132 51.7828
L 170.132 51.7828
Z
M 176.947 67.0137
L 178.947 67.0137
C 178.947 65.9092 178.052 65.0137 176.947 65.0137
L 176.947 67.0137
Z
M 176.947 86.8394
L 174.947 86.8394
C 174.947 87.944 175.843 88.8394 176.947 88.8394
L 176.947 86.8394
Z
M 44.7781 724.992
L 44.65 726.987
C 44.6926 726.99 44.7354 726.992 44.7781 726.992
L 44.7781 724.992
Z
M 1.9959 722.246
L 2.12396 720.251
L 1.9959 722.246
Z
M 38.7271 514.445
L 38.3531 512.481
L 38.7271 514.445
Z
M 70.0808 506.493
L 68.0825 506.412
L 70.0808 506.493
Z
M 75.6935 406.681
L 74.5238 405.059
L 75.6935 406.681
Z
M 99.6101 387.41
L 101.61 387.372
L 99.6101 387.41
Z
M 99.6587 172.508
L 101.267 173.697
L 99.6587 172.508
Z
M 108.188 102.744
L 109.739 104.007
L 108.188 102.744
Z
M 125.506 0.326741
L 123.837 1.42799
L 125.506 0.326741
Z
M 172.976 48.3136
L 174.621 47.1761
L 172.976 48.3136
Z
M 342.102 624.965
L 341.653 626.913
L 341.653 626.913
L 342.102 624.965
Z
M 312.177 618.059
L 312.626 616.11
L 312.177 618.059
Z
M 275.46 507.892
L 275.059 509.851
L 275.46 507.892
Z
M 271.96 409.85
L 273.96 409.819
L 271.96 409.85
Z
M 247.974 390.579
L 246.805 392.202
L 247.974 390.579
Z
M 246.917 359.654
L 244.917 359.616
L 246.917 359.654
Z
M 238.443 161.82
L 236.443 161.82
C 236.443 162.248 236.581 162.665 236.835 163.009
L 238.443 161.82
Z
M 232.117 95.7464
L 230.117 95.7464
C 230.117 96.2063 230.275 96.6522 230.565 97.0089
L 232.117 95.7464
Z
M 232.117 44.0276
L 234.117 44.0276
C 234.117 42.923 233.221 42.0276 232.117 42.0276
L 232.117 44.0276
Z
M 229.783 32.3531
L 231.783 32.3531
C 231.783 31.9324 231.651 31.5225 231.404 31.1816
L 229.783 32.3531
Z
M 226.62 27.9761
L 224.62 27.9761
C 224.62 28.3967 224.753 28.8067 224.999 29.1476
L 226.62 27.9761
Z
M 224.44 22.8135
L 222.44 22.8135
C 222.44 23.9181 223.336 24.8135 224.44 24.8135
L 224.44 22.8135
Z
M 222.99 13.0647
L 220.99 13.0647
C 220.99 14.1693 221.885 15.0647 222.99 15.0647
L 222.99 13.0647
Z
M 222.99 3.5794
L 224.99 3.5794
C 224.99 3.28205 224.924 2.98844 224.796 2.71994
L 222.99 3.5794
Z
M 221.474 0.394946
L 219.668 1.25441
L 221.474 0.394946
Z
M 218.348 3.5794
L 216.679 2.47815
C 216.463 2.80498 216.348 3.18788 216.348 3.5794
L 218.348 3.5794
Z
M 218.348 13.0647
L 218.348 15.0647
C 219.453 15.0647 220.348 14.1693 220.348 13.0647
L 218.348 13.0647
Z
M 216.898 22.8135
L 216.898 24.8135
C 218.003 24.8135 218.898 23.9181 218.898 22.8135
L 216.898 22.8135
Z
M 214.867 27.9761
L 216.483 29.1543
C 216.733 28.8121 216.867 28.3995 216.867 27.9761
L 214.867 27.9761
Z
M 211.676 32.3531
L 210.06 31.1749
C 209.811 31.5171 209.676 31.9296 209.676 32.3531
L 211.676 32.3531
Z
M 209.646 44.0276
L 209.646 42.0276
C 208.541 42.0276 207.646 42.923 207.646 44.0276
L 209.646 44.0276
Z
M 209.646 86.8394
L 209.646 88.8394
C 210.75 88.8394 211.646 87.944 211.646 86.8394
L 209.646 86.8394
Z
M 194.851 86.8394
L 192.851 86.8394
C 192.851 87.944 193.747 88.8394 194.851 88.8394
L 194.851 86.8394
Z
M 194.851 77.881
L 196.851 77.881
C 196.851 76.7765 195.956 75.881 194.851 75.881
L 194.851 77.881
Z
M 184.118 77.881
L 184.118 75.881
C 183.013 75.881 182.118 76.7765 182.118 77.881
L 184.118 77.881
Z
M 184.118 86.8394
L 184.118 88.8394
C 185.222 88.8394 186.118 87.944 186.118 86.8394
L 184.118 86.8394
Z
M 175.868 67.0137
L 173.868 67.0137
C 173.868 68.1183 174.764 69.0137 175.868 69.0137
L 175.868 67.0137
Z
M 175.868 51.7828
L 177.868 51.7828
C 177.868 51.4562 177.788 51.1345 177.635 50.846
L 175.868 51.7828
Z
M 174.062 48.3746
L 172.295 49.3114
L 174.062 48.3746
Z
M 169.053 67.0137
L 169.053 65.0137
C 167.948 65.0137 167.053 65.9092 167.053 67.0137
L 169.053 67.0137
Z
M 169.053 86.8394
L 169.053 88.8394
C 170.157 88.8394 171.053 87.944 171.053 86.8394
L 169.053 86.8394
Z
M 301.222 724.992
L 301.222 726.992
C 301.265 726.992 301.307 726.99 301.35 726.987
L 301.222 724.992
Z
M 344.004 722.246
L 343.876 720.251
L 344.004 722.246
Z
M 307.283 514.393
L 307.684 512.433
L 307.283 514.393
Z
M 273.468 505.492
L 271.469 505.523
L 273.468 505.492
Z
M 270.307 406.681
L 271.476 405.059
L 270.307 406.681
Z
M 246.39 387.41
L 248.39 387.448
L 246.39 387.41
Z
M 246.341 172.508
L 244.733 173.697
L 246.341 172.508
Z
M 237.812 102.744
L 239.363 101.482
L 237.812 102.744
Z
M 220.494 0.326741
L 222.163 1.42799
L 220.494 0.326741
Z
M 173.024 48.3136
L 171.379 47.1761
L 173.024 48.3136
Z
M 173 48.3489
L 171.355 49.4864
C 171.728 50.0265 172.343 50.3489 173 50.3489
C 173.657 50.3489 174.272 50.0265 174.645 49.4864
L 173 48.3489
Z
M 4.34727 626.913
L 34.273 620.008
L 33.3736 616.11
L 3.4479 623.016
L 4.34727 626.913
Z
M 36.7977 616.834
L 36.7977 585.638
L 32.7977 585.638
L 32.7977 616.834
L 36.7977 616.834
Z
M 36.7977 585.638
L 36.7977 519.194
L 32.7977 519.194
L 32.7977 585.638
L 36.7977 585.638
Z
M 39.1012 516.41
L 68.4093 510.83
L 67.6612 506.901
L 38.3531 512.481
L 39.1012 516.41
Z
M 72.0792 506.574
L 75.9887 409.93
L 71.992 409.768
L 68.0825 506.412
L 72.0792 506.574
Z
M 76.8631 408.303
L 99.1954 392.202
L 96.856 388.957
L 74.5238 405.059
L 76.8631 408.303
Z
M 101.61 387.372
L 101.083 359.616
L 97.0837 359.692
L 97.6104 387.448
L 101.61 387.372
Z
M 101.064 357.654
L 101.064 280.455
L 97.0644 280.455
L 97.0644 357.654
L 101.064 357.654
Z
M 101.064 280.455
L 101.064 174.313
L 97.0644 174.313
L 97.0644 280.455
L 101.064 280.455
Z
M 101.267 173.697
L 109.165 163.009
L 105.948 160.632
L 98.0502 171.32
L 101.267 173.697
Z
M 109.557 161.82
L 109.557 104.52
L 105.557 104.52
L 105.557 161.82
L 109.557 161.82
Z
M 109.739 104.007
L 115.435 97.0089
L 112.332 94.4839
L 106.637 101.482
L 109.739 104.007
Z
M 115.883 95.7464
L 115.883 44.0276
L 111.883 44.0276
L 111.883 95.7464
L 115.883 95.7464
Z
M 113.883 46.0276
L 115.217 46.0276
L 115.217 42.0276
L 113.883 42.0276
L 113.883 46.0276
Z
M 118.217 43.0276
L 118.217 32.3531
L 114.217 32.3531
L 114.217 43.0276
L 118.217 43.0276
Z
M 117.838 33.5246
L 121.001 29.1476
L 117.759 26.8046
L 114.596 31.1816
L 117.838 33.5246
Z
M 121.38 27.9761
L 121.38 23.8135
L 117.38 23.8135
L 117.38 27.9761
L 121.38 27.9761
Z
M 120.38 24.8135
L 121.56 24.8135
L 121.56 20.8135
L 120.38 20.8135
L 120.38 24.8135
Z
M 123.56 22.8135
L 123.56 14.0647
L 119.56 14.0647
L 119.56 22.8135
L 123.56 22.8135
Z
M 122.56 15.0647
L 123.01 15.0647
L 123.01 11.0647
L 122.56 11.0647
L 122.56 15.0647
Z
M 125.01 13.0647
L 125.01 3.5794
L 121.01 3.5794
L 121.01 13.0647
L 125.01 13.0647
Z
M 124.816 4.43886
L 126.332 1.25441
L 122.72 -0.464515
L 121.204 2.71994
L 124.816 4.43886
Z
M 123.837 1.42799
L 125.982 4.68065
L 129.321 2.47815
L 127.176 -0.774509
L 123.837 1.42799
Z
M 125.652 3.5794
L 125.652 13.0647
L 129.652 13.0647
L 129.652 3.5794
L 125.652 3.5794
Z
M 127.652 15.0647
L 128.102 15.0647
L 128.102 11.0647
L 127.652 11.0647
L 127.652 15.0647
Z
M 127.102 14.0647
L 127.102 22.8135
L 131.102 22.8135
L 131.102 14.0647
L 127.102 14.0647
Z
M 129.102 24.8135
L 130.133 24.8135
L 130.133 20.8135
L 129.102 20.8135
L 129.102 24.8135
Z
M 129.133 23.8135
L 129.133 27.9761
L 133.133 27.9761
L 133.133 23.8135
L 129.133 23.8135
Z
M 129.517 29.1543
L 132.708 33.5313
L 135.94 31.1749
L 132.749 26.7979
L 129.517 29.1543
Z
M 132.324 32.3531
L 132.324 43.0276
L 136.324 43.0276
L 136.324 32.3531
L 132.324 32.3531
Z
M 135.324 46.0276
L 136.354 46.0276
L 136.354 42.0276
L 135.324 42.0276
L 135.324 46.0276
Z
M 134.354 44.0276
L 134.354 86.8394
L 138.354 86.8394
L 138.354 44.0276
L 134.354 44.0276
Z
M 136.354 88.8394
L 151.149 88.8394
L 151.149 84.8394
L 136.354 84.8394
L 136.354 88.8394
Z
M 153.149 86.8394
L 153.149 77.881
L 149.149 77.881
L 149.149 86.8394
L 153.149 86.8394
Z
M 159.882 77.881
L 159.882 86.8394
L 163.882 86.8394
L 163.882 77.881
L 159.882 77.881
Z
M 169.243 69.0137
L 170.132 69.0137
L 170.132 65.0137
L 169.243 65.0137
L 169.243 69.0137
Z
M 172.132 67.0137
L 172.132 51.7828
L 168.132 51.7828
L 168.132 67.0137
L 172.132 67.0137
Z
M 171.899 52.7196
L 173.705 49.3114
L 170.171 47.4378
L 168.365 50.846
L 171.899 52.7196
Z
M 174.947 67.0137
L 174.947 74.4558
L 178.947 74.4558
L 178.947 67.0137
L 174.947 67.0137
Z
M 174.947 74.4558
L 174.947 86.8394
L 178.947 86.8394
L 178.947 74.4558
L 174.947 74.4558
Z
M 185.467 79.881
L 194.265 79.881
L 194.265 75.881
L 185.467 75.881
L 185.467 79.881
Z
M 44.9061 722.996
L 2.12396 720.251
L 1.86783 724.242
L 44.65 726.987
L 44.9061 722.996
Z
M 2 720.118
L 2 629.864
L -2 629.864
L -2 720.118
L 2 720.118
Z
M 3.4479 623.016
C 0.387843 623.722 -2 626.723 -2 629.864
L 2 629.864
C 2 628.586 3.10217 627.201 4.34727 626.913
L 3.4479 623.016
Z
M 34.273 620.008
C 35.7186 619.674 36.7977 618.318 36.7977 616.834
L 32.7977 616.834
C 32.8332 616.735 32.9577 616.384 32.9472 616.362
C 32.9706 616.368 33.2852 616.167 33.3736 616.11
L 34.273 620.008
Z
M 36.7977 519.194
C 36.7977 517.945 37.8744 516.644 39.1012 516.41
L 38.3531 512.481
C 35.2395 513.074 32.7977 516.024 32.7977 519.194
L 36.7977 519.194
Z
M 68.4093 510.83
C 70.408 510.45 71.997 508.607 72.0792 506.574
L 68.0825 506.412
C 68.0754 506.587 67.8327 506.868 67.6612 506.901
L 68.4093 510.83
Z
M 75.9887 409.93
C 76.0085 409.44 76.4655 408.59 76.8631 408.303
L 74.5238 405.059
C 73.1295 406.064 72.0614 408.051 71.992 409.768
L 75.9887 409.93
Z
M 99.1954 392.202
C 100.624 391.172 101.643 389.133 101.61 387.372
L 97.6104 387.448
C 97.6189 387.896 97.2197 388.695 96.856 388.957
L 99.1954 392.202
Z
M 101.083 359.616
C 101.073 359.073 101.064 358.197 101.064 357.654
L 97.0644 357.654
C 97.0644 358.216 97.0731 359.13 97.0837 359.692
L 101.083 359.616
Z
M 101.064 174.313
C 101.064 174.188 101.193 173.797 101.267 173.697
L 98.0502 171.32
C 97.4677 172.108 97.0644 173.332 97.0644 174.313
L 101.064 174.313
Z
M 109.557 104.52
C 109.557 104.427 109.681 104.078 109.739 104.007
L 106.637 101.482
C 105.998 102.267 105.557 103.508 105.557 104.52
L 109.557 104.52
Z
M 115.217 46.0276
C 116.874 46.0276 118.217 44.6845 118.217 43.0276
L 114.217 43.0276
C 114.228 42.9565 114.281 42.6969 114.296 42.6377
C 114.331 42.5802 114.473 42.3694 114.51 42.3205
C 114.559 42.2842 114.769 42.1418 114.827 42.107
C 114.886 42.0919 115.146 42.0386 115.217 42.0276
L 115.217 46.0276
Z
M 121.38 23.8135
C 121.369 23.8847 121.316 24.1443 121.301 24.2034
C 121.266 24.2609 121.124 24.4717 121.087 24.5206
C 121.038 24.5569 120.828 24.6993 120.77 24.7341
C 120.711 24.7493 120.451 24.8025 120.38 24.8135
L 120.38 20.8135
C 118.723 20.8135 117.38 22.1567 117.38 23.8135
L 121.38 23.8135
Z
M 123.56 14.0647
C 123.549 14.1359 123.495 14.3955 123.48 14.4546
C 123.445 14.5121 123.303 14.723 123.267 14.7718
C 123.218 14.8081 123.007 14.9505 122.95 14.9853
C 122.89 15.0005 122.631 15.0537 122.56 15.0647
L 122.56 11.0647
C 120.903 11.0647 119.56 12.4079 119.56 14.0647
L 123.56 14.0647
Z
M 126.332 1.25441
C 126.295 1.30727 126.104 1.55568 126.013 1.64814
C 125.851 1.75448 125.363 1.95332 125.13 1.99613
C 124.893 1.98603 124.382 1.85667 124.206 1.77388
C 124.104 1.69482 123.88 1.47531 123.837 1.42799
L 127.176 -0.774509
C 126.8 -1.34402 126.017 -2.07527 124.852 -1.99423
C 123.687 -1.91318 123.013 -1.08055 122.72 -0.464515
L 126.332 1.25441
Z
M 128.102 15.0647
C 128.031 15.0537 127.771 15.0005 127.712 14.9853
C 127.655 14.9505 127.444 14.8081 127.395 14.7718
C 127.359 14.723 127.216 14.5121 127.181 14.4546
C 127.166 14.3955 127.113 14.1359 127.102 14.0647
L 131.102 14.0647
C 131.102 12.4079 129.759 11.0647 128.102 11.0647
L 128.102 15.0647
Z
M 130.133 24.8135
C 130.062 24.8025 129.802 24.7493 129.743 24.7341
C 129.685 24.6993 129.474 24.5569 129.426 24.5206
C 129.389 24.4717 129.247 24.2609 129.212 24.2034
C 129.197 24.1443 129.144 23.8847 129.133 23.8135
L 133.133 23.8135
C 133.133 22.1567 131.79 20.8135 130.133 20.8135
L 130.133 24.8135
Z
M 132.324 43.0276
C 132.324 44.6845 133.667 46.0276 135.324 46.0276
L 135.324 42.0276
C 135.395 42.0386 135.654 42.0919 135.714 42.107
C 135.771 42.1418 135.982 42.2842 136.031 42.3205
C 136.067 42.3694 136.209 42.5802 136.244 42.6377
C 136.259 42.6969 136.313 42.9565 136.324 43.0276
L 132.324 43.0276
Z
M 173.705 49.3114
C 173.664 49.3664 173.461 49.6063 173.371 49.6911
C 173.218 49.7817 172.761 49.952 172.554 49.9873
C 172.344 49.9765 171.87 49.8609 171.707 49.7889
C 171.608 49.7154 171.378 49.5009 171.331 49.4511
L 174.621 47.1761
C 174.207 46.5785 173.42 45.9295 172.319 45.9942
C 171.218 46.059 170.512 46.7958 170.171 47.4378
L 173.705 49.3114
Z
M 2.12396 720.251
C 2.07434 720.247 2 720.168 2 720.118
L -2 720.118
C -2 722.278 -0.287158 724.104 1.86783 724.242
L 2.12396 720.251
Z
M 342.552 623.016
L 312.626 616.11
L 311.727 620.008
L 341.653 626.913
L 342.552 623.016
Z
M 313.202 616.834
L 313.202 585.638
L 309.202 585.638
L 309.202 616.834
L 313.202 616.834
Z
M 313.202 585.638
L 313.202 519.194
L 309.202 519.194
L 309.202 585.638
L 313.202 585.638
Z
M 307.684 512.433
L 275.86 505.932
L 275.059 509.851
L 306.883 516.353
L 307.684 512.433
Z
M 275.468 505.46
L 273.96 409.819
L 269.961 409.882
L 271.469 505.523
L 275.468 505.46
Z
M 271.476 405.059
L 249.144 388.957
L 246.805 392.202
L 269.137 408.303
L 271.476 405.059
Z
M 248.39 387.448
L 248.916 359.692
L 244.917 359.616
L 244.39 387.372
L 248.39 387.448
Z
M 248.936 357.654
L 248.936 280.455
L 244.936 280.455
L 244.936 357.654
L 248.936 357.654
Z
M 248.936 280.455
L 248.936 174.313
L 244.936 174.313
L 244.936 280.455
L 248.936 280.455
Z
M 247.95 171.32
L 240.052 160.632
L 236.835 163.009
L 244.733 173.697
L 247.95 171.32
Z
M 240.443 161.82
L 240.443 104.52
L 236.443 104.52
L 236.443 161.82
L 240.443 161.82
Z
M 239.363 101.482
L 233.668 94.4839
L 230.565 97.0089
L 236.261 104.007
L 239.363 101.482
Z
M 234.117 95.7464
L 234.117 44.0276
L 230.117 44.0276
L 230.117 95.7464
L 234.117 95.7464
Z
M 232.117 42.0276
L 230.783 42.0276
L 230.783 46.0276
L 232.117 46.0276
L 232.117 42.0276
Z
M 231.783 43.0276
L 231.783 32.3531
L 227.783 32.3531
L 227.783 43.0276
L 231.783 43.0276
Z
M 231.404 31.1816
L 228.241 26.8046
L 224.999 29.1476
L 228.162 33.5246
L 231.404 31.1816
Z
M 228.62 27.9761
L 228.62 23.8135
L 224.62 23.8135
L 224.62 27.9761
L 228.62 27.9761
Z
M 225.62 20.8135
L 224.44 20.8135
L 224.44 24.8135
L 225.62 24.8135
L 225.62 20.8135
Z
M 226.44 22.8135
L 226.44 14.0647
L 222.44 14.0647
L 222.44 22.8135
L 226.44 22.8135
Z
M 223.44 11.0647
L 222.99 11.0647
L 222.99 15.0647
L 223.44 15.0647
L 223.44 11.0647
Z
M 224.99 13.0647
L 224.99 3.5794
L 220.99 3.5794
L 220.99 13.0647
L 224.99 13.0647
Z
M 224.796 2.71994
L 223.28 -0.464515
L 219.668 1.25441
L 221.184 4.43886
L 224.796 2.71994
Z
M 218.824 -0.774509
L 216.679 2.47815
L 220.018 4.68065
L 222.163 1.42799
L 218.824 -0.774509
Z
M 216.348 3.5794
L 216.348 13.0647
L 220.348 13.0647
L 220.348 3.5794
L 216.348 3.5794
Z
M 218.348 11.0647
L 217.898 11.0647
L 217.898 15.0647
L 218.348 15.0647
L 218.348 11.0647
Z
M 214.898 14.0647
L 214.898 22.8135
L 218.898 22.8135
L 218.898 14.0647
L 214.898 14.0647
Z
M 216.898 20.8135
L 215.867 20.8135
L 215.867 24.8135
L 216.898 24.8135
L 216.898 20.8135
Z
M 212.867 23.8135
L 212.867 27.9761
L 216.867 27.9761
L 216.867 23.8135
L 212.867 23.8135
Z
M 213.251 26.7979
L 210.06 31.1749
L 213.292 33.5313
L 216.483 29.1543
L 213.251 26.7979
Z
M 209.676 32.3531
L 209.676 43.0276
L 213.676 43.0276
L 213.676 32.3531
L 209.676 32.3531
Z
M 210.676 42.0276
L 209.646 42.0276
L 209.646 46.0276
L 210.676 46.0276
L 210.676 42.0276
Z
M 207.646 44.0276
L 207.646 86.8394
L 211.646 86.8394
L 211.646 44.0276
L 207.646 44.0276
Z
M 209.646 84.8394
L 194.851 84.8394
L 194.851 88.8394
L 209.646 88.8394
L 209.646 84.8394
Z
M 196.851 86.8394
L 196.851 77.881
L 192.851 77.881
L 192.851 86.8394
L 196.851 86.8394
Z
M 182.118 77.881
L 182.118 86.8394
L 186.118 86.8394
L 186.118 77.881
L 182.118 77.881
Z
M 176.757 65.0137
L 175.868 65.0137
L 175.868 69.0137
L 176.757 69.0137
L 176.757 65.0137
Z
M 177.868 67.0137
L 177.868 51.7828
L 173.868 51.7828
L 173.868 67.0137
L 177.868 67.0137
Z
M 177.635 50.846
L 175.829 47.4378
L 172.295 49.3114
L 174.101 52.7196
L 177.635 50.846
Z
M 167.053 67.0137
L 167.053 74.4558
L 171.053 74.4558
L 171.053 67.0137
L 167.053 67.0137
Z
M 167.053 74.4558
L 167.053 86.8394
L 171.053 86.8394
L 171.053 74.4558
L 167.053 74.4558
Z
M 160.533 75.881
L 151.735 75.881
L 151.735 79.881
L 160.533 79.881
L 160.533 75.881
Z
M 301.35 726.987
L 344.132 724.242
L 343.876 720.251
L 301.094 722.996
L 301.35 726.987
Z
M 348 720.118
L 348 629.864
L 344 629.864
L 344 720.118
L 348 720.118
Z
M 341.653 626.913
C 342.898 627.201 344 628.586 344 629.864
L 348 629.864
C 348 626.723 345.612 623.722 342.552 623.016
L 341.653 626.913
Z
M 312.626 616.11
C 312.715 616.167 313.029 616.368 313.053 616.362
C 313.042 616.384 313.167 616.735 313.202 616.834
L 309.202 616.834
C 309.202 618.318 310.281 619.674 311.727 620.008
L 312.626 616.11
Z
M 313.202 519.194
C 313.202 516.034 310.779 513.066 307.684 512.433
L 306.883 516.353
C 308.116 516.604 309.202 517.935 309.202 519.194
L 313.202 519.194
Z
M 275.86 505.932
C 275.697 505.899 275.471 505.626 275.468 505.46
L 271.469 505.523
C 271.501 507.566 273.058 509.443 275.059 509.851
L 275.86 505.932
Z
M 273.96 409.819
C 273.933 408.083 272.885 406.074 271.476 405.059
L 269.137 408.303
C 269.52 408.58 269.953 409.409 269.961 409.882
L 273.96 409.819
Z
M 249.144 388.957
C 248.78 388.695 248.381 387.896 248.39 387.448
L 244.39 387.372
C 244.357 389.133 245.376 391.172 246.805 392.202
L 249.144 388.957
Z
M 248.916 359.692
C 248.927 359.13 248.936 358.216 248.936 357.654
L 244.936 357.654
C 244.936 358.197 244.927 359.073 244.917 359.616
L 248.916 359.692
Z
M 248.936 174.313
C 248.936 173.332 248.532 172.108 247.95 171.32
L 244.733 173.697
C 244.807 173.797 244.936 174.188 244.936 174.313
L 248.936 174.313
Z
M 240.443 104.52
C 240.443 103.508 240.002 102.267 239.363 101.482
L 236.261 104.007
C 236.319 104.078 236.443 104.427 236.443 104.52
L 240.443 104.52
Z
M 230.783 42.0276
C 230.854 42.0386 231.114 42.0919 231.173 42.107
C 231.231 42.1418 231.441 42.2842 231.49 42.3205
C 231.527 42.3694 231.669 42.5802 231.704 42.6377
C 231.719 42.6969 231.772 42.9565 231.783 43.0276
L 227.783 43.0276
C 227.783 44.6845 229.126 46.0276 230.783 46.0276
L 230.783 42.0276
Z
M 228.62 23.8135
C 228.62 22.1567 227.277 20.8135 225.62 20.8135
L 225.62 24.8135
C 225.549 24.8025 225.289 24.7493 225.23 24.7341
C 225.172 24.6993 224.962 24.5569 224.913 24.5206
C 224.876 24.4717 224.734 24.2609 224.699 24.2034
C 224.684 24.1443 224.631 23.8847 224.62 23.8135
L 228.62 23.8135
Z
M 226.44 14.0647
C 226.44 12.4079 225.097 11.0647 223.44 11.0647
L 223.44 15.0647
C 223.369 15.0537 223.11 15.0005 223.05 14.9853
C 222.993 14.9505 222.782 14.8081 222.733 14.7718
C 222.697 14.723 222.555 14.5121 222.52 14.4546
C 222.505 14.3955 222.451 14.1359 222.44 14.0647
L 226.44 14.0647
Z
M 223.28 -0.464515
C 222.987 -1.08055 222.313 -1.91318 221.148 -1.99423
C 219.983 -2.07527 219.2 -1.34402 218.824 -0.774509
L 222.163 1.42799
C 222.12 1.47531 221.896 1.69482 221.794 1.77388
C 221.618 1.85667 221.107 1.98603 220.87 1.99613
C 220.637 1.95332 220.149 1.75448 219.987 1.64814
C 219.896 1.55568 219.705 1.30727 219.668 1.25441
L 223.28 -0.464515
Z
M 217.898 11.0647
C 216.241 11.0647 214.898 12.4079 214.898 14.0647
L 218.898 14.0647
C 218.887 14.1359 218.834 14.3955 218.819 14.4546
C 218.784 14.5121 218.641 14.723 218.605 14.7718
C 218.556 14.8081 218.345 14.9505 218.288 14.9853
C 218.229 15.0005 217.969 15.0537 217.898 15.0647
L 217.898 11.0647
Z
M 215.867 20.8135
C 214.21 20.8135 212.867 22.1567 212.867 23.8135
L 216.867 23.8135
C 216.856 23.8847 216.803 24.1443 216.788 24.2034
C 216.753 24.2609 216.611 24.4717 216.574 24.5206
C 216.526 24.5569 216.315 24.6993 216.257 24.7341
C 216.198 24.7493 215.938 24.8025 215.867 24.8135
L 215.867 20.8135
Z
M 209.676 43.0276
C 209.687 42.9565 209.741 42.6969 209.756 42.6377
C 209.791 42.5802 209.933 42.3694 209.969 42.3205
C 210.018 42.2842 210.229 42.1418 210.286 42.107
C 210.346 42.0919 210.605 42.0386 210.676 42.0276
L 210.676 46.0276
C 212.333 46.0276 213.676 44.6845 213.676 43.0276
L 209.676 43.0276
Z
M 175.829 47.4378
C 175.488 46.7958 174.782 46.059 173.681 45.9942
C 172.58 45.9295 171.793 46.5785 171.379 47.1761
L 174.669 49.4511
C 174.622 49.5009 174.392 49.7154 174.293 49.7889
C 174.13 49.8609 173.656 49.9765 173.446 49.9873
C 173.239 49.952 172.782 49.7817 172.629 49.6911
C 172.539 49.6063 172.336 49.3664 172.295 49.3114
L 175.829 47.4378
Z
M 344.132 724.242
C 346.287 724.104 348 722.278 348 720.118
L 344 720.118
C 344 720.168 343.926 720.247 343.876 720.251
L 344.132 724.242
Z
M 148.286 726.992
L 197.714 726.992
L 197.714 722.992
L 148.286 722.992
L 148.286 726.992
Z
M 197.714 726.992
L 301.222 726.992
L 301.222 722.992
L 197.714 722.992
L 197.714 726.992
Z
M 169.243 65.0137
L 169.053 65.0137
L 169.053 69.0137
L 169.243 69.0137
L 169.243 65.0137
Z
M 169.053 84.8394
L 161.882 84.8394
L 161.882 88.8394
L 169.053 88.8394
L 169.053 84.8394
Z
M 184.118 84.8394
L 176.947 84.8394
L 176.947 88.8394
L 184.118 88.8394
L 184.118 84.8394
Z
M 194.851 75.881
L 194.265 75.881
L 194.265 79.881
L 194.851 79.881
L 194.851 75.881
Z
M 185.467 75.881
L 184.118 75.881
L 184.118 79.881
L 185.467 79.881
L 185.467 75.881
Z
M 148.286 722.992
L 44.7781 722.992
L 44.7781 726.992
L 148.286 726.992
L 148.286 722.992
Z
M 171.379 47.1761
L 171.355 47.2114
L 174.645 49.4864
L 174.669 49.4511
L 171.379 47.1761
Z
M 171.331 49.4511
L 171.355 49.4864
L 174.645 47.2114
L 174.621 47.1761
L 171.331 49.4511
Z
M 176.757 69.0137
L 176.947 69.0137
L 176.947 65.0137
L 176.757 65.0137
L 176.757 69.0137
Z
M 151.149 79.881
L 151.735 79.881
L 151.735 75.881
L 151.149 75.881
L 151.149 79.881
Z
M 160.533 79.881
L 161.882 79.881
L 161.882 75.881
L 160.533 75.881
L 160.533 79.881
Z"/>
<path id="path2_stroke" d="
M 0 6
L 0 13
C 0 16.3137 2.68629 19 6 19
L 9 19
C 12.3137 19 15 16.3137 15 13
L 15 6
C 15 2.68629 12.3137 0 9 0
L 6 0
C 2.68629 0 0 2.68629 0 6
Z
M 4 13
L 4 6
C 4 4.89543 4.89543 4 6 4
L 9 4
C 10.1046 4 11 4.89543 11 6
L 11 13
C 11 14.1046 10.1046 15 9 15
L 6 15
C 4.89543 15 4 14.1046 4 13
Z"/>
<path id="path3_stroke" d="
M 0 6
L 0 56
C 0 59.3137 2.68629 62 6 62
L 23 62
C 26.3137 62 29 59.3137 29 56
L 29 6
C 29 2.68629 26.3137 0 23 0
L 6 0
C 2.68629 0 0 2.68629 0 6
Z
M 4 56
L 4 6
C 4 4.89543 4.89543 4 6 4
L 23 4
C 24.1046 4 25 4.89543 25 6
L 25 56
C 25 57.1046 24.1046 58 23 58
L 6 58
C 4.89543 58 4 57.1046 4 56
Z"/>
<path id="path4_stroke" d="
M 4 4
C 3.99562 4.00438 4 3.99889 4 4
Z
M 250 4
C 250 1.79086 248.209 0 246 0
L 4 0
C 1.79086 0 0 1.79086 0 4
L 0 199
C 0 201.209 1.79086 203 4 203
L 246 203
C 248.209 203 250 201.209 250 199
L 250 4
Z
M 4 4
L 246 4
L 246 199
L 4 199
L 4 4
C 3.99562 4.00438 4 3.99889 4 4
Z"/>
<path id="path5_stroke" d="
M 1.25211 166
L -0.743454 166.133
L -0.618934 168
L 1.25211 168
L 1.25211 166
Z
M 102.777 166
L 102.777 168
L 104.637 168
L 104.771 166.145
L 102.777 166
Z
M 102.777 164
L 1.25211 164
L 1.25211 168
L 102.777 168
L 102.777 164
Z
M 52.9281 2
C 65.2422 2 74.711 9.07194 81.9877 21.0534
C 89.2916 33.0796 94.2087 49.8048 97.3377 68.3921
L 101.282 67.7281
C 98.1199 48.9426 93.0959 31.6377 85.4066 18.977
C 77.6902 6.27169 67.1137 -2 52.9281 -2
L 52.9281 2
Z
M 97.3377 68.3921
C 102.86 101.152 102.731 139.032 100.782 165.855
L 104.771 166.145
C 106.728 139.184 106.847 100.826 101.282 67.7281
L 97.3377 68.3921
Z
M 3.24768 165.867
C 1.87447 145.287 1.39867 121.148 3.03323 97.7129
L -0.957097 97.4349
C -2.60009 121.048 -2.12181 145.459 -0.743454 166.133
L 3.24768 165.867
Z
M 3.03323 97.7129
C 4.78341 72.5532 8.90969 48.5054 16.9667 30.6635
C 24.9625 12.9184 36.5171 2 52.9281 2
L 52.9281 -2
C 34.2466 -2 21.616 10.6084 13.3198 29.0202
C 5.08471 47.3352 0.812184 72.0743 -0.957097 97.4349
L 3.03323 97.7129
Z"/>
<path id="path6_stroke" d="
M 32 239
L 4 239
L 4 24.0584
L 18 6.43149
L 32 24.0584
L 32 239
Z
M 4 243
L 32 243
L 36 243
L 36 239
L 36 22.6632
L 19.2439 1.56613
C 18.5569 0.70118 17.4431 0.70118 16.7561 1.56613
L 0 22.6632
L 0 239
L 0 243
L 4 243
Z"/>
<path id="path7_stroke" d="
M 28 240
L 4 240
L 4 24.0219
L 16 6.95457
L 28 24.0219
L 28 240
Z
M 4 244
L 28 244
L 32 244
L 32 240
L 32 22.7565
L 17.1503 1.63608
C 16.515 0.732498 15.485 0.732498 14.8497 1.63608
L 0 22.7565
L 0 240
L 0 244
L 4 244
Z"/>
<path id="path8_stroke" d="
M 4 4
L 46 4
L 50 4
C 50 1.79086 48.2091 0 46 0
L 4 0
C 1.79086 0 0 1.79086 0 4
L 4 4
C 3.99889 4 4.00438 3.99562 4 4
Z
M 46 4
L 46 230
L 4 230
L 4 4
C 3.99889 4 4.00438 3.99562 4 4
L 0 4
L 0 230
C 0 232.209 1.79086 234 4 234
L 46 234
C 48.2091 234 50 232.209 50 230
L 50 4
L 46 4
Z"/>
<path id="path9_stroke" d="
M 14 18.5
L 12 18.5
C 12 19.6046 12.8954 20.5 14 20.5
L 14 18.5
Z
M 7 18.5
L 7 20.5
C 8.10457 20.5 9 19.6046 9 18.5
L 7 18.5
Z
M 7 8
L 7 10
C 8.10457 10 9 9.10457 9 8
L 7 8
Z
M 7 15
L 9 15
C 9 13.8954 8.10457 13 7 13
L 7 15
Z
M 7 25.5
L 9 25.5
C 9 24.3954 8.10457 23.5 7 23.5
L 7 25.5
Z
M 14 25.5
L 14 23.5
C 12.8954 23.5 12 24.3954 12 25.5
L 14 25.5
Z
M 14 8
L 12 8
C 12 9.10457 12.8954 10 14 10
L 14 8
Z
M 14 15
L 14 13
C 12.8954 13 12 13.8954 12 15
L 14 15
Z
M 5 49.5
C 5 52.5376 7.46243 55 10.5 55
L 10.5 51
C 9.67157 51 9 50.3284 9 49.5
L 5 49.5
Z
M 10.5 55
C 13.5376 55 16 52.5376 16 49.5
L 12 49.5
C 12 50.3284 11.3284 51 10.5 51
L 10.5 55
Z
M 16 3.5
C 16 0.462434 13.5376 -2 10.5 -2
L 10.5 2
C 11.3284 2 12 2.67157 12 3.5
L 16 3.5
Z
M 10.5 -2
C 7.46243 -2 5 0.462434 5 3.5
L 9 3.5
C 9 2.67157 9.67157 2 10.5 2
L 10.5 -2
Z
M 5.5 6
C 2.46243 6 0 8.46243 0 11.5
L 4 11.5
C 4 10.6716 4.67157 10 5.5 10
L 5.5 6
Z
M 0 11.5
C 0 14.5376 2.46243 17 5.5 17
L 5.5 13
C 4.67157 13 4 12.3284 4 11.5
L 0 11.5
Z
M 14.4997 17
C 17.5373 17 19.9997 14.5376 19.9997 11.5
L 15.9997 11.5
C 15.9997 12.3284 15.3281 13 14.4997 13
L 14.4997 17
Z
M 19.9997 11.5
C 19.9997 8.46243 17.5373 6 14.4997 6
L 14.4997 10
C 15.3281 10 15.9997 10.6716 15.9997 11.5
L 19.9997 11.5
Z
M 3.5 16.5
C 0.462434 16.5 -2 18.9624 -2 22
L 2 22
C 2 21.1716 2.67157 20.5 3.5 20.5
L 3.5 16.5
Z
M -2 22
C -2 25.0376 0.462434 27.5 3.5 27.5
L 3.5 23.5
C 2.67157 23.5 2 22.8284 2 22
L -2 22
Z
M 16.4997 27.5
C 19.5373 27.5 21.9997 25.0376 21.9997 22
L 17.9997 22
C 17.9997 22.8284 17.3281 23.5 16.4997 23.5
L 16.4997 27.5
Z
M 21.9997 22
C 21.9997 18.9624 19.5373 16.5 16.4997 16.5
L 16.4997 20.5
C 17.3281 20.5 17.9997 21.1716 17.9997 22
L 21.9997 22
Z
M 16.4997 16.5
L 14 16.5
L 14 20.5
L 16.4997 20.5
L 16.4997 16.5
Z
M 7 16.5
L 3.5 16.5
L 3.5 20.5
L 7 20.5
L 7 16.5
Z
M 5 3.5
L 5 8
L 9 8
L 9 3.5
L 5 3.5
Z
M 5 15
L 5 18.5
L 9 18.5
L 9 15
L 5 15
Z
M 5 25.5
L 5 49.5
L 9 49.5
L 9 25.5
L 5 25.5
Z
M 3.5 27.5
L 7 27.5
L 7 23.5
L 3.5 23.5
L 3.5 27.5
Z
M 14 27.5
L 16.4997 27.5
L 16.4997 23.5
L 14 23.5
L 14 27.5
Z
M 14.4997 6
L 14 6
L 14 10
L 14.4997 10
L 14.4997 6
Z
M 7 6
L 5.5 6
L 5.5 10
L 7 10
L 7 6
Z
M 5.5 17
L 7 17
L 7 13
L 5.5 13
L 5.5 17
Z
M 14 17
L 14.4997 17
L 14.4997 13
L 14 13
L 14 17
Z
M 16 49.5
L 16 25.5
L 12 25.5
L 12 49.5
L 16 49.5
Z
M 16 18.5
L 16 15
L 12 15
L 12 18.5
L 16 18.5
Z
M 16 8
L 16 3.5
L 12 3.5
L 12 8
L 16 8
Z"/>
<path id="path10_stroke" d="
M 7.95949 71.0411
L 9.9593 71.0141
L 7.95949 71.0411
Z
M 13.0405 2.95949
L 11.0407 2.9865
L 13.0405 2.95949
Z
M 13.238 17.5828
L 11.2382 17.6098
C 11.253 18.7038 12.144 19.5828 13.238 19.5828
L 13.238 17.5828
Z
M 7.23749 17.5828
L 7.23749 19.5828
C 7.7726 19.5828 8.2854 19.3684 8.66122 18.9874
C 9.03704 18.6065 9.24453 18.0909 9.2373 17.5558
L 7.23749 17.5828
Z
M 13.0962 7.08282
L 11.0964 7.10983
C 11.1112 8.20376 12.0022 9.08282 13.0962 9.08282
L 13.0962 7.08282
Z
M 13.1908 14.0828
L 13.1908 12.0828
C 12.6556 12.0828 12.1429 12.2973 11.767 12.6782
C 11.3912 13.0591 11.1837 13.5748 11.1909 14.1098
L 13.1908 14.0828
Z
M 13.3326 24.5828
L 13.3326 22.5828
C 12.7975 22.5828 12.2847 22.7973 11.9088 23.1782
C 11.533 23.5591 11.3255 24.0748 11.3328 24.6098
L 13.3326 24.5828
Z
M 7.33203 24.5828
L 9.33185 24.5558
C 9.31707 23.4619 8.42606 22.5828 7.33203 22.5828
L 7.33203 24.5828
Z
M 7.09568 7.08282
L 7.09568 9.08282
C 7.63079 9.08282 8.14359 8.86838 8.51941 8.48745
C 8.89523 8.10652 9.10272 7.59087 9.09549 7.05581
L 7.09568 7.08282
Z
M 7.19022 14.0828
L 9.19003 14.0558
C 9.17526 12.9619 8.28425 12.0828 7.19022 12.0828
L 7.19022 14.0828
Z
M 11.9591 70.9871
C 11.9666 71.5393 11.525 71.993 10.9727 72.0005
L 11.0267 76.0001
C 13.7879 75.9628 15.996 73.6942 15.9588 70.933
L 11.9591 70.9871
Z
M 10.9727 72.0005
C 10.4205 72.0079 9.96676 71.5663 9.9593 71.0141
L 5.95967 71.0681
C 5.99696 73.8293 8.26556 76.0374 11.0267 76.0001
L 10.9727 72.0005
Z
M 9.0409 3.01351
C 9.03344 2.46128 9.47507 2.00756 10.0273 2.0001
L 9.97328 -1.99954
C 7.21211 -1.96225 5.00397 0.306357 5.04126 3.06753
L 9.0409 3.01351
Z
M 10.0273 2.0001
C 10.5795 1.99264 11.0333 2.43427 11.0407 2.9865
L 15.0404 2.93248
C 15.0031 0.171311 12.7345 -2.03683 9.97328 -1.99954
L 10.0273 2.0001
Z
M 5.5 5.08282
C 2.46243 5.08282 0 7.54525 0 10.5828
L 4 10.5828
C 4 9.75439 4.67157 9.08282 5.5 9.08282
L 5.5 5.08282
Z
M 0 10.5828
C 0 13.6204 2.46243 16.0828 5.5 16.0828
L 5.5 12.0828
C 4.67157 12.0828 4 11.4112 4 10.5828
L 0 10.5828
Z
M 14.4997 16.0828
C 17.5373 16.0828 19.9997 13.6204 19.9997 10.5828
L 15.9997 10.5828
C 15.9997 11.4112 15.3281 12.0828 14.4997 12.0828
L 14.4997 16.0828
Z
M 19.9997 10.5828
C 19.9997 7.54525 17.5373 5.08282 14.4997 5.08282
L 14.4997 9.08282
C 15.3281 9.08282 15.9997 9.75439 15.9997 10.5828
L 19.9997 10.5828
Z
M 3.5 15.5828
C 0.462434 15.5828 -2 18.0452 -2 21.0828
L 2 21.0828
C 2 20.2544 2.67157 19.5828 3.5 19.5828
L 3.5 15.5828
Z
M -2 21.0828
C -2 24.1204 0.462434 26.5828 3.5 26.5828
L 3.5 22.5828
C 2.67157 22.5828 2 21.9112 2 21.0828
L -2 21.0828
Z
M 16.4997 26.5828
C 19.5373 26.5828 21.9997 24.1204 21.9997 21.0828
L 17.9997 21.0828
C 17.9997 21.9112 17.3281 22.5828 16.4997 22.5828
L 16.4997 26.5828
Z
M 21.9997 21.0828
C 21.9997 18.0452 19.5373 15.5828 16.4997 15.5828
L 16.4997 19.5828
C 17.3281 19.5828 17.9997 20.2544 17.9997 21.0828
L 21.9997 21.0828
Z
M 16.4997 15.5828
L 13.238 15.5828
L 13.238 19.5828
L 16.4997 19.5828
L 16.4997 15.5828
Z
M 7.23749 15.5828
L 3.5 15.5828
L 3.5 19.5828
L 7.23749 19.5828
L 7.23749 15.5828
Z
M 11.0407 2.9865
L 11.0964 7.10983
L 15.096 7.05581
L 15.0404 2.93248
L 11.0407 2.9865
Z
M 11.1909 14.1098
L 11.2382 17.6098
L 15.2379 17.5558
L 15.1906 14.0558
L 11.1909 14.1098
Z
M 11.3328 24.6098
L 11.9591 70.9871
L 15.9588 70.933
L 15.3324 24.5558
L 11.3328 24.6098
Z
M 3.5 26.5828
L 7.33203 26.5828
L 7.33203 22.5828
L 3.5 22.5828
L 3.5 26.5828
Z
M 13.3326 26.5828
L 16.4997 26.5828
L 16.4997 22.5828
L 13.3326 22.5828
L 13.3326 26.5828
Z
M 14.4997 5.08282
L 13.0962 5.08282
L 13.0962 9.08282
L 14.4997 9.08282
L 14.4997 5.08282
Z
M 7.09568 5.08282
L 5.5 5.08282
L 5.5 9.08282
L 7.09568 9.08282
L 7.09568 5.08282
Z
M 5.5 16.0828
L 7.19022 16.0828
L 7.19022 12.0828
L 5.5 12.0828
L 5.5 16.0828
Z
M 13.1908 16.0828
L 14.4997 16.0828
L 14.4997 12.0828
L 13.1908 12.0828
L 13.1908 16.0828
Z
M 9.9593 71.0141
L 9.33185 24.5558
L 5.33221 24.6098
L 5.95967 71.0681
L 9.9593 71.0141
Z
M 9.2373 17.5558
L 9.19003 14.0558
L 5.1904 14.1098
L 5.23767 17.6098
L 9.2373 17.5558
Z
M 9.09549 7.05581
L 9.0409 3.01351
L 5.04126 3.06753
L 5.09586 7.10983
L 9.09549 7.05581
Z"/>
<path id="path11_fill" d="
M 14.4997 15
C 16.4327 15 17.9997 13.433 17.9997 11.5
C 17.9997 9.567 16.4327 8 14.4997 8
L 14 8
L 14 3.5
C 14 1.567 12.433 1.18362e-16 10.5 0
C 8.567 -1.18362e-16 7 1.567 7 3.5
L 7 8
L 5.5 8
C 3.567 8 2 9.567 2 11.5
C 2 13.433 3.567 15 5.5 15
L 7 15
L 7 18.5
L 3.5 18.5
C 1.567 18.5 0 20.067 0 22
C 0 23.933 1.567 25.5 3.5 25.5
L 7 25.5
L 7 49.5
C 7 51.433 8.567 53 10.5 53
C 12.433 53 14 51.433 14 49.5
L 14 25.5
L 16.4997 25.5
C 18.4327 25.5 19.9997 23.933 19.9997 22
C 19.9997 20.067 18.4327 18.5 16.4997 18.5
L 14 18.5
L 14 15
L 14.4997 15
Z"/>
<path id="path12_stroke" d="
M 0 8
L 0 89
C 0 93.4183 3.58172 97 8 97
L 132 97
C 136.418 97 140 93.4183 140 89
L 140 8
C 140 3.58172 136.418 0 132 0
L 8 0
C 3.58172 0 0 3.58172 0 8
Z
M 4 89
L 4 8
C 4 5.79086 5.79086 4 8 4
L 132 4
C 134.209 4 136 5.79086 136 8
L 136 89
C 136 91.2091 134.209 93 132 93
L 8 93
C 5.79086 93 4 91.2091 4 89
Z"/>
<path id="path13_stroke" d="
M 0 5
L 0 363
C 0 365.761 2.23858 368 5 368
L 34 368
C 36.7614 368 39 365.761 39 363
L 39 5
C 39 2.23858 36.7614 0 34 0
L 5 0
C 2.23858 0 0 2.23858 0 5
Z
M 4 363
L 4 5
C 4 4.44772 4.44772 4 5 4
L 34 4
C 34.5523 4 35 4.44772 35 5
L 35 363
C 35 363.552 34.5523 364 34 364
L 5 364
C 4.44772 364 4 363.552 4 363
Z"/>
<path id="path14_stroke" d="
M 0 5
L 0 363
C 0 365.761 2.23858 368 5 368
L 33 368
C 35.7614 368 38 365.761 38 363
L 38 5
C 38 2.23858 35.7614 0 33 0
L 5 0
C 2.23858 0 0 2.23858 0 5
Z
M 4 363
L 4 5
C 4 4.44772 4.44772 4 5 4
L 33 4
C 33.5523 4 34 4.44772 34 5
L 34 363
C 34 363.552 33.5523 364 33 364
L 5 364
C 4.44772 364 4 363.552 4 363
Z"/>
<path id="path15_stroke" d="
M 19 1
C 19 0.447715 18.5523 0 18 0
L 1 0
C 0.447715 0 0 0.447715 0 1
L 0 361
C 0 361.552 0.447715 362 1 362
L 18 362
C 18.5523 362 19 361.552 19 361
L 19 1
Z
M 15 358
L 4 358
L 4 4
L 15 4
L 15 358
Z"/>
<path id="path16_stroke" d="
M 49 157
L 49 159
L 51 159
L 51 157
L 49 157
Z
M 0 39.5543
L -1.69176 38.4875
L -2 38.9764
L -2 39.5543
L 0 39.5543
Z
M 49 39.5543
L 51 39.5543
L 51 38.9938
L 50.7087 38.5149
L 49 39.5543
Z
M 49 155
L 3 155
L 3 159
L 49 159
L 49 155
Z
M 2 154.022
C 2 138.86 2 71.3868 2 39.5543
L -2 39.5543
C -2 71.3868 -2 138.86 -2 154.022
L 2 154.022
Z
M 1.69176 40.621
C 14.1903 20.7981 19.7345 10.8631 22.4932 5.91877
C 23.9402 3.32539 24.5039 2.3376 24.8651 1.91186
C 24.928 1.8337 24.8781 1.87907 24.8926 1.87393
C 24.8693 1.88194 24.6939 1.97055 24.6694 1.98467
C 24.6172 1.97672 24.5821 2 24.941 2
L 24.941 -2
C 24.5821 -2 24.0087 -1.97672 23.4665 -1.83017
C 22.7497 -1.60416 22.2316 -1.16707 21.8148 -0.675787
C 21.1274 0.134537 20.3118 1.61889 19.0001 3.96979
C 16.2414 8.91407 10.7508 18.7561 -1.69176 38.4875
L 1.69176 40.621
Z
M 24.941 2
C 25.3 2 25.2629 1.97641 25.2071 1.98345
C 25.1796 1.96811 24.9984 1.87549 24.971 1.86456
C 24.9819 1.86698 24.9275 1.81618 24.9864 1.89175
C 25.3329 2.31128 25.8709 3.29138 27.2622 5.88865
C 29.9106 10.8329 35.234 20.7694 47.2913 40.5936
L 50.7087 38.5149
C 38.707 18.7849 33.4366 8.9442 30.7882 3.99992
C 29.531 1.6529 28.7448 0.160865 28.0703 -0.655679
C 27.6587 -1.15402 27.1407 -1.59936 26.4178 -1.82894
C 25.8754 -1.97641 25.3 -2 24.941 -2
L 24.941 2
Z
M 47 39.5543
C 47 57.2016 47 86.563 47 111.513
C 47 123.987 47 135.359 47 143.612
C 47 147.739 47 151.086 47 153.401
C 47 154.559 47 155.458 47 156.069
C 47 156.374 47 156.607 47 156.763
C 47 156.842 47 156.901 47 156.94
C 47 156.96 47 156.975 47 156.985
C 47 156.99 47 156.994 47 156.996
C 47 156.997 47 156.998 47 156.999
C 47 157 47 157 49 157
C 51 157 51 157 51 156.999
C 51 156.998 51 156.997 51 156.996
C 51 156.994 51 156.99 51 156.985
C 51 156.975 51 156.96 51 156.94
C 51 156.901 51 156.842 51 156.763
C 51 156.607 51 156.374 51 156.069
C 51 155.458 51 154.559 51 153.401
C 51 151.086 51 147.739 51 143.612
C 51 135.359 51 123.987 51 111.513
C 51 86.563 51 57.2016 51 39.5543
L 47 39.5543
Z
M 3 155
C 2.42828 155 2 154.555 2 154.022
L -2 154.022
C -2 156.803 0.25801 159 3 159
L 3 155
Z"/>
<path id="path17_stroke" d="
M 4.54263e-15 156
L -2 156
L -2 158
L 4.54263e-15 158
L 4.54263e-15 156
Z
M 0 39.3023
L -1.69855 38.2464
L -2 38.7313
L -2 39.3023
L 0 39.3023
Z
M 48 39.3023
L 50 39.3023
L 50 38.7486
L 49.7152 38.2738
L 48 39.3023
Z
M 45 154
L 4.54263e-15 154
L 4.54263e-15 158
L 45 158
L 45 154
Z
M 2 156
C 2 152.977 2 74.3721 2 39.3023
L -2 39.3023
C -2 74.3721 -2 152.977 -2 156
L 2 156
Z
M 1.69855 40.3582
C 13.9421 20.6614 19.3732 10.7895 22.0756 5.87673
C 23.4935 3.29909 24.0452 2.31882 24.3978 1.8972
C 24.4586 1.82043 24.4073 1.86787 24.4196 1.86419
C 24.3937 1.8743 24.2143 1.96612 24.186 1.9817
C 24.1251 1.97609 24.0804 2 24.432 2
L 24.432 -2
C 24.0804 -2 23.5084 -1.97609 22.9675 -1.82817
C 22.2516 -1.59921 21.7383 -1.15785 21.3295 -0.668998
C 20.6549 0.137576 19.8554 1.61371 18.5709 3.94885
C 15.8685 8.86164 10.4899 18.6409 -1.69855 38.2464
L 1.69855 40.3582
Z
M 24.432 2
C 24.7836 2 24.737 1.97577 24.6725 1.98044
C 24.6412 1.96363 24.4561 1.86774 24.4261 1.8547
C 24.435 1.85566 24.3792 1.80281 24.4361 1.87702
C 24.7745 2.29254 25.3011 3.26529 26.6643 5.84674
C 29.2587 10.7595 34.4735 20.6328 46.2848 40.3309
L 49.7152 38.2738
C 37.9586 18.6695 32.7958 8.89163 30.2014 3.97884
C 28.9702 1.6475 28.1996 0.163858 27.5378 -0.648826
C 27.134 -1.1446 26.621 -1.59431 25.8988 -1.82692
C 25.3577 -1.97577 24.7836 -2 24.432 -2
L 24.432 2
Z
M 46 39.3023
C 46 42.6136 46 73.4349 46 102.236
C 46 116.636 46 130.532 46 140.23
C 46 145.08 46 148.88 46 151.17
C 46 152.315 46 153.082 46 153.414
C 46 153.497 46 153.553 46 153.581
C 46 153.587 46 153.593 46 153.596
C 46 153.598 46 153.599 46 153.6
C 46 153.601 48 153.601 50 153.601
C 50 153.601 50 153.593 50 153.578
C 50 153.519 50 153.345 50 153.046
L 46 153.046
C 46 153.345 46 153.519 46 153.578
C 46 153.593 46 153.601 46 153.601
C 48 153.601 50 153.601 50 153.6
C 50 153.599 50 153.598 50 153.596
C 50 153.593 50 153.587 50 153.581
C 50 153.553 50 153.497 50 153.414
C 50 153.082 50 152.315 50 151.17
C 50 148.88 50 145.08 50 140.23
C 50 130.532 50 116.636 50 102.236
C 50 73.4349 50 42.6136 50 39.3023
L 46 39.3023
Z
M 45 158
C 47.7205 158 50 155.848 50 153.046
L 46 153.046
C 46 153.558 45.5932 154 45 154
L 45 158
Z"/>
<path id="path18_stroke" d="
M 2.66454e-15 129
L -2 129
L -2 131
L 2.66454e-15 131
L 2.66454e-15 129
Z
M 28.155 129
L 28.155 131
L 30.155 131
L 30.155 129
L 28.155 129
Z
M 0 24.5
L -1.72635 23.4902
L -2 23.958
L -2 24.5
L 0 24.5
Z
M 28.155 24.5
L 30.155 24.5
L 30.155 23.9747
L 29.8968 23.5172
L 28.155 24.5
Z
M 28.155 127
L 2.66454e-15 127
L 2.66454e-15 131
L 28.155 131
L 28.155 127
Z
M 2 129
C 2 126.5 2 53.5 2 24.5
L -2 24.5
C -2 53.5 -2 126.5 -2 129
L 2 129
Z
M 1.72635 25.5098
C 8.91731 13.2149 12.1119 7.04434 13.697 3.98184
C 14.5522 2.32968 14.833 1.80979 14.9826 1.61967
C 14.9931 1.60221 14.8976 1.69831 14.8636 1.73087
C 14.7887 1.78009 14.556 1.90603 14.4729 1.94145
C 14.2962 1.97322 14.1247 2 14.3309 2
L 14.3309 -2
C 14.1247 -2 13.6438 -1.97322 13.1856 -1.84574
C 12.5519 -1.63037 12.1304 -1.22403 11.8393 -0.854043
C 11.3864 -0.278542 10.8746 0.732817 10.1447 2.14316
C 8.55953 5.20566 5.41361 11.2851 -1.72635 23.4902
L 1.72635 25.5098
Z
M 14.3309 2
C 14.434 2 14.4514 1.99867 14.4605 2.00067
C 14.4547 1.99829 14.2757 1.96398 14.1839 1.94005
C 14.0981 1.9033 13.8603 1.7731 13.7824 1.72086
C 13.7459 1.68561 13.6473 1.58425 13.6554 1.59928
C 13.7968 1.78377 14.0639 2.29685 14.8866 3.95249
C 16.4083 7.01499 19.4759 13.1867 26.4131 25.4828
L 29.8968 23.5172
C 23.01 11.3133 19.9905 5.23501 18.4687 2.17251
C 17.7696 0.765651 17.2758 -0.252523 16.8305 -0.833658
C 16.5421 -1.20996 16.1201 -1.62502 15.4794 -1.84435
C 14.9611 -2.02177 14.4404 -2 14.3309 -2
L 14.3309 2
Z
M 26.155 24.5
C 26.155 31.6468 26.155 41.6176 26.155 52.5866
L 30.155 52.5866
C 30.155 41.6176 30.155 31.6468 30.155 24.5
L 26.155 24.5
Z
M 26.155 52.5866
C 26.155 69.3569 26.155 88.4602 26.155 103.371
C 26.155 110.826 26.155 117.234 26.155 121.777
C 26.155 124.049 26.155 125.854 26.155 127.092
C 26.155 127.711 26.155 128.188 26.155 128.51
C 26.155 128.671 26.155 128.794 26.155 128.876
C 26.155 128.917 26.155 128.948 26.155 128.969
C 26.155 128.979 26.155 128.987 26.155 128.992
C 26.155 128.995 26.155 128.997 26.155 128.998
C 26.155 128.999 26.155 128.999 26.155 129
C 26.155 129 26.155 129 28.155 129
C 30.155 129 30.155 129 30.155 129
C 30.155 128.999 30.155 128.999 30.155 128.998
C 30.155 128.997 30.155 128.995 30.155 128.992
C 30.155 128.987 30.155 128.979 30.155 128.969
C 30.155 128.948 30.155 128.917 30.155 128.876
C 30.155 128.794 30.155 128.671 30.155 128.51
C 30.155 128.188 30.155 127.711 30.155 127.092
C 30.155 125.854 30.155 124.049 30.155 121.777
C 30.155 117.234 30.155 110.826 30.155 103.371
C 30.155 88.4602 30.155 69.3569 30.155 52.5866
L 26.155 52.5866
Z"/>
<path id="path19_stroke" d="
M 2.66454e-15 129
L -2 129
L -2 131
L 2.66454e-15 131
L 2.66454e-15 129
Z
M 28.155 129
L 28.155 131
L 30.155 131
L 30.155 129
L 28.155 129
Z
M 0 25.5
L -1.74353 24.5201
L -2 24.9765
L -2 25.5
L 0 25.5
Z
M 28.155 25.5
L 30.155 25.5
L 30.155 24.9928
L 29.9132 24.5468
L 28.155 25.5
Z
M 28.155 127
L 2.66454e-15 127
L 2.66454e-15 131
L 28.155 131
L 28.155 127
Z
M 2 129
C 2 126.5 2 54.5 2 25.5
L -2 25.5
C -2 54.5 -2 126.5 -2 129
L 2 129
Z
M 1.74353 26.4799
C 8.93318 13.6855 12.1265 7.26555 13.7116 4.07805
C 14.5641 2.36393 14.8504 1.81077 15.0063 1.60466
C 15.0186 1.58405 14.9266 1.6803 14.894 1.71293
C 14.819 1.76425 14.5827 1.89711 14.4963 1.93528
C 14.4012 1.96097 14.2156 1.99774 14.2068 2.00049
C 14.2133 1.99857 14.2278 2 14.3309 2
L 14.3309 -2
C 14.2222 -2 13.6913 -2.02289 13.1622 -1.83567
C 12.518 -1.60778 12.0989 -1.18241 11.8156 -0.807782
C 11.369 -0.217023 10.8628 0.823568 10.1301 2.29695
C 8.54493 5.48445 5.39774 11.8145 -1.74353 24.5201
L 1.74353 26.4799
Z
M 14.3309 2
C 14.434 2 14.4484 1.99856 14.4546 2.00048
C 14.4453 1.99766 14.2574 1.96027 14.1604 1.93379
C 14.0712 1.89422 13.83 1.75697 13.752 1.7026
C 13.7171 1.66729 13.6222 1.56592 13.6324 1.58419
C 13.7802 1.78499 14.0529 2.33178 14.8728 4.04917
C 16.3945 7.23667 19.4608 13.6577 26.3967 26.4532
L 29.9132 24.5468
C 23.0251 11.8423 20.0043 5.51333 18.4825 2.32583
C 17.7806 0.855719 17.2924 -0.191236 16.8535 -0.787316
C 16.5734 -1.16781 16.1542 -1.60213 15.5029 -1.83419
C 14.972 -2.02334 14.4374 -2 14.3309 -2
L 14.3309 2
Z
M 26.155 25.5
C 26.155 32.6468 26.155 42.5569 26.155 53.4343
L 30.155 53.4343
C 30.155 42.5569 30.155 32.6468 30.155 25.5
L 26.155 25.5
Z
M 26.155 53.4343
C 26.155 70.0647 26.155 88.9561 26.155 103.69
C 26.155 111.057 26.155 117.384 26.155 121.87
C 26.155 124.113 26.155 125.896 26.155 127.117
C 26.155 127.728 26.155 128.199 26.155 128.517
C 26.155 128.676 26.155 128.797 26.155 128.878
C 26.155 128.918 26.155 128.949 26.155 128.969
C 26.155 128.979 26.155 128.987 26.155 128.992
C 26.155 128.995 26.155 128.997 26.155 128.998
C 26.155 128.999 26.155 128.999 26.155 129
C 26.155 129 26.155 129 28.155 129
C 30.155 129 30.155 129 30.155 129
C 30.155 128.999 30.155 128.999 30.155 128.998
C 30.155 128.997 30.155 128.995 30.155 128.992
C 30.155 128.987 30.155 128.979 30.155 128.969
C 30.155 128.949 30.155 128.918 30.155 128.878
C 30.155 128.797 30.155 128.676 30.155 128.517
C 30.155 128.199 30.155 127.728 30.155 127.117
C 30.155 125.896 30.155 124.113 30.155 121.87
C 30.155 117.384 30.155 111.057 30.155 103.69
C 30.155 88.9561 30.155 70.0647 30.155 53.4343
L 26.155 53.4343
Z"/>
<path id="path20_stroke" d="
M 18 2
C 18 0.895431 17.1046 0 16 0
L 2 0
C 0.895431 0 0 0.895431 0 2
L 0 388
C 0 389.105 0.895431 390 2 390
L 16 390
C 17.1046 390 18 389.105 18 388
L 18 2
Z
M 14 386
L 4 386
L 4 4
L 14 4
L 14 386
Z"/>
<path id="path21_stroke" d="
M 7 2
C 7 0.895431 6.10457 0 5 0
L 2 0
C 0.895431 0 0 0.895431 0 2
L 0 47.7778
C 0 48.8823 0.895431 49.7778 2 49.7778
L 5 49.7778
C 6.10457 49.7778 7 48.8823 7 47.7778
L 7 2
Z"/>
<path id="path22_stroke" d="
M 4 4
L 248 4
L 252 4
C 252 1.79086 250.209 0 248 0
L 4 0
C 1.79086 0 0 1.79086 0 4
L 4 4
C 3.99889 4 4.00438 3.99562 4 4
Z
M 248 4
L 248 31
L 4 31
L 4 4
C 3.99889 4 4.00438 3.99562 4 4
L 0 4
L 0 31
C 0 33.2091 1.79086 35 4 35
L 248 35
C 250.209 35 252 33.2091 252 31
L 252 4
L 248 4
Z"/>
<path id="path23_stroke" d="
M 38 262
L 4 262
L 4 26.274
L 21 6.19107
L 38 26.274
L 38 262
Z
M 0 262
L 0 266
L 4 266
L 38 266
L 42 266
L 42 262
L 42 24.8083
L 22.2922 1.52652
C 21.5785 0.683446 20.4215 0.683446 19.7078 1.52652
L 0 24.8083
L 0 262
Z"/>
<path id="path24_stroke" d="
M 24 212
L 4 212
L 4 21.3985
L 14 7.00917
L 24 21.3985
L 24 212
Z
M 4 216
L 24 216
L 28 216
L 28 212
L 28 20.1451
L 15.1414 1.64234
C 14.511 0.735302 13.489 0.735302 12.8586 1.64234
L 0 20.1451
L 0 212
L 0 216
L 4 216
Z"/>
<path id="path25_stroke" d="
M 24 214
L 4 214
L 4 21.5756
L 14 7.053
L 24 21.5756
L 24 214
Z
M 4 218
L 24 218
L 28 218
L 28 214
L 28 20.3316
L 15.1343 1.64725
C 14.5078 0.737499 13.4922 0.737499 12.8657 1.64725
L 0 20.3316
L 0 214
L 0 218
L 4 218
Z"/>
<path id="path26_stroke" d="
M 0.854807 145
L -1.14248 145.104
L -1.04365 147
L 0.854807 147
L 0.854807 145
Z
M 70.1647 145
L 70.1647 147
L 72.0544 147
L 72.1615 145.113
L 70.1647 145
Z
M 67.7981 59.4502
L 65.8152 59.7111
L 67.7981 59.4502
Z
M 70.1647 143
L 0.854807 143
L 0.854807 147
L 70.1647 147
L 70.1647 143
Z
M 36.1336 2
C 43.9884 2 50.3176 7.77555 55.3326 18.3408
C 60.3677 28.9204 63.6821 43.4811 65.8152 59.7111
L 69.7811 59.1893
C 67.6191 42.7742 64.1469 27.6098 58.9462 16.6256
C 53.7255 5.62703 46.37 -2 36.1336 -2
L 36.1336 2
Z
M 65.8152 59.7111
C 69.5866 88.3415 69.4991 121.451 68.1679 144.887
L 72.1615 145.113
C 73.4973 121.569 73.5784 88.0851 69.7811 59.1893
L 65.8152 59.7111
Z
M 2.8521 144.896
C 1.91444 126.915 1.58952 105.817 2.70572 85.3389
L -1.28836 85.1215
C -2.40972 105.739 -2.08329 127.05 -1.14248 145.104
L 2.8521 144.896
Z
M 2.70572 85.3389
C 3.90119 63.3535 6.72142 42.3261 12.2246 26.731
C 17.7527 11.0337 25.5648 2 36.1336 2
L 36.1336 -2
C 22.7451 -2 14.0461 9.51681 8.45173 25.4023
C 2.83246 41.3901 -0.0811208 62.9778 -1.28836 85.1215
L 2.70572 85.3389
Z"/>
<path id="path27_stroke" d="
M 0.806649 140
L -1.19076 140.102
L -1.09405 142
L 0.806649 142
L 0.806649 140
Z
M 66.2118 140
L 66.2118 142
L 68.1039 142
L 68.2087 140.111
L 66.2118 140
Z
M 66.2118 138
L 0.806649 138
L 0.806649 142
L 66.2118 142
L 66.2118 138
Z
M 34.0979 2
C 41.4186 2 47.3683 7.50983 52.106 17.722
C 56.8558 27.9328 59.9821 41.9862 61.9949 57.6552
L 65.9622 57.1451
C 63.9219 41.2948 60.6439 26.6481 55.7346 16.0387
C 50.8132 5.4306 43.8492 -2 34.0979 -2
L 34.0979 2
Z
M 61.9949 57.6552
C 65.5536 85.2968 65.4709 117.262 64.2149 139.889
L 68.2087 140.111
C 69.4693 117.378 69.5457 85.0462 65.9622 57.1451
L 61.9949 57.6552
Z
M 2.80406 139.898
C 1.91925 122.538 1.61264 102.169 2.66592 82.3976
L -1.32843 82.1851
C -2.38663 102.093 -2.07858 122.67 -1.19076 140.102
L 2.80406 139.898
Z
M 2.66592 82.3976
C 3.79397 61.1713 6.45462 40.8729 11.6468 25.8188
C 16.8716 10.6392 24.2291 2 34.0979 2
L 34.0979 -2
C 21.3591 -2 13.1357 9.20269 7.8646 24.517
C 2.56098 39.9566 -0.189133 60.8039 -1.32843 82.1851
L 2.66592 82.3976
Z"/>
<path id="path28_stroke" d="
M 0.806649 145
L -1.19094 145.098
L -1.09738 147
L 0.806649 147
L 0.806649 145
Z
M 66.2118 145
L 66.2118 147
L 68.1075 147
L 68.2089 145.107
L 66.2118 145
Z
M 66.2118 143
L 0.806649 143
L 0.806649 147
L 66.2118 147
L 66.2118 143
Z
M 34.0979 2
C 41.3809 2 47.3406 7.6865 52.0951 18.3008
C 56.8493 28.8879 59.9801 43.4618 61.9938 59.6966
L 65.9633 59.2038
C 63.9239 42.7935 60.6504 27.6423 55.7456 16.6656
C 50.841 5.71609 43.8869 -2 34.0979 -2
L 34.0979 2
Z
M 61.9938 59.6966
C 65.5533 88.3344 65.4709 121.454 64.2146 144.893
L 68.2089 145.107
C 69.4693 121.566 69.546 88.0923 65.9633 59.2038
L 61.9938 59.6966
Z
M 2.80423 144.902
C 1.91932 126.919 1.61267 105.815 2.66611 85.3329
L -1.32862 85.1277
C -2.38666 105.741 -2.07866 127.046 -1.19094 145.098
L 2.80423 144.902
Z
M 2.66611 85.3329
C 3.79453 63.3431 6.45802 42.3016 11.6537 26.6975
C 14.2277 18.9357 17.2968 12.7735 21.1542 8.43635
C 24.879 4.22362 29.1396 2 34.0979 2
L 34.0979 -2
C 27.7524 -2 22.4659 0.91402 18.1575 5.7868
C 13.9817 10.5351 10.5316 17.4063 7.85778 25.436
C 2.55757 41.4147 -0.189701 62.9883 -1.32862 85.1277
L 2.66611 85.3329
Z"/>
<path id="path29_stroke" d="
M 0.204672 67
L -1.7946 67.054
L -1.74203 69
L 0.204672 69
L 0.204672 67
Z
M 16.8 67
L 16.8 69
L 18.742 69
L 18.7991 67.0588
L 16.8 67
Z
M 16.8 65
L 0.204672 65
L 0.204672 69
L 16.8 69
L 16.8 65
Z
M 8.65171 2
C 8.654 2 9.0816 1.98901 9.80167 3.19578
C 10.5426 4.4185 11.1526 6.16114 11.7392 8.55616
C 12.9388 13.4175 13.7278 20.1136 14.238 27.6062
L 18.2287 27.3341
C 17.7105 19.7424 16.8746 12.7034 15.6234 7.60077
C 14.9845 5.01379 14.1627 2.7172 13.2367 1.14618
C 12.2897 -0.440773 10.8153 -2 8.65171 -2
L 8.65171 2
Z
M 14.238 27.6062
C 15.1406 40.8274 15.1195 56.1153 14.8009 66.9412
L 18.7991 67.0588
C 19.119 56.1768 19.1383 40.6939 18.2287 27.3341
L 14.238 27.6062
Z
M 2.20394 66.946
C 1.97948 58.6398 1.9017 48.897 2.16889 39.4386
L -1.82952 39.3258
C -2.09809 48.8565 -2.01991 58.7097 -1.7946 67.054
L 2.20394 66.946
Z
M 2.16889 39.4386
C 2.45494 29.2846 3.12816 19.5908 4.44285 12.4036
C 5.09103 8.84104 5.83996 6.08968 6.78647 4.15955
C 7.75771 2.15913 8.47215 2 8.65171 2
L 8.65171 -2
C 5.96315 -2 4.25518 0.214804 3.18816 2.4125
C 2.09641 4.68049 1.19121 7.95142 0.507831 11.6855
C -0.840604 19.0918 -1.54027 29.0891 -1.82952 39.3258
L 2.16889 39.4386
Z"/>
<path id="path30_stroke" d="
M 2 -4
C 0.895431 -4 0 -3.10457 0 -2
C 0 -0.895431 0.895431 0 2 0
L 2 -4
Z
M 123.503 0
C 124.608 0 125.503 -0.895431 125.503 -2
C 125.503 -3.10457 124.608 -4 123.503 -4
L 123.503 0
Z
M 2 0
L 123.503 0
L 123.503 -4
L 2 -4
L 2 0
Z"/>
<path id="path31_stroke" d="
M 2 -4
C 0.895431 -4 0 -3.10457 0 -2
C 0 -0.895431 0.895431 0 2 0
L 2 -4
Z
M 28 0
C 29.1046 0 30 -0.895431 30 -2
C 30 -3.10457 29.1046 -4 28 -4
L 28 0
Z
M 2 0
L 28 0
L 28 -4
L 2 -4
L 2 0
Z"/>
<path id="path32_stroke" d="
M 2 -4
C 0.895431 -4 0 -3.10457 0 -2
C 0 -0.895431 0.895431 0 2 0
L 2 -4
Z
M 24 0
C 25.1046 0 26 -0.895431 26 -2
C 26 -3.10457 25.1046 -4 24 -4
L 24 0
Z
M 2 0
L 24 0
L 24 -4
L 2 -4
L 2 0
Z"/>
</defs>
</svg>
